<svg width="101" height="100" viewBox="0 0 101 100" fill="none" xmlns="http://www.w3.org/2000/svg">
<g id="fi_4474452">
<g id="Group">
<path id="Vector" d="M27.7348 79.6451L41.125 71.9139L35.2656 61.7477L29.4062 51.5816L15.9443 59.3494C15.5512 57.2283 15.3438 55.0869 15.3438 52.9297C15.3438 47.7234 16.5289 42.6568 18.7572 37.9744L8.59336 32.0732C5.35547 38.5721 3.625 45.6395 3.625 52.9297C3.625 61.4584 5.9457 69.4402 9.92852 76.3465C17.5678 89.5926 31.4363 99.0012 47.5703 100V87.9379C40.1773 87.3246 33.2949 84.3805 27.7348 79.6451Z" fill="#57D9AD"/>
<path id="Vector_2" d="M47.5705 100V87.9378C40.1775 87.3246 33.2951 84.3804 27.735 79.6453L41.1252 71.914L35.2658 61.7478L9.92871 76.3464C17.568 89.5925 31.4365 99.0011 47.5705 100Z" fill="#26BFA6"/>
<path id="Vector_3" d="M92.4369 32.1172L82.2541 38.0244C84.565 42.8674 85.6562 47.9434 85.6562 52.9297C85.6562 55.0855 85.4492 57.2291 85.0543 59.3574L71.5936 51.5818L65.7342 61.7478L59.8748 71.9141L73.2773 79.6352C67.717 84.3748 60.8297 87.3238 53.4297 87.9379V100C69.5633 99.0012 83.4318 89.5934 91.0715 76.3469C95.0543 69.441 97.375 61.4588 97.375 52.9297C97.375 45.8176 95.7566 38.7311 92.4369 32.1172Z" fill="#FFEA80"/>
<path id="Vector_4" d="M92.4371 32.1172L82.2543 38.0244C84.5652 42.8674 85.6564 47.9434 85.6564 52.9297C85.6564 55.0855 85.4494 57.2291 85.0545 59.3574L71.5938 51.5818L65.7344 61.7478L91.0717 76.3469C95.0545 69.441 97.3752 61.4588 97.3752 52.9297C97.3752 45.8176 95.7568 38.7311 92.4371 32.1172Z" fill="#FFCC66"/>
<g id="Group_2">
<path id="Vector_5" d="M50.4998 6.05469C35.4502 6.05469 20.8699 13.1281 11.4766 26.9727L21.6719 32.8902C25.6055 27.0938 31.7279 22.3369 38.7811 19.824V35.3516H50.4998H62.2186V19.824C68.9066 22.2068 75.076 26.6836 79.3277 32.949L89.523 27.0311C82.2143 15.2561 67.4109 6.05469 50.4998 6.05469Z" fill="#F25555"/>
<path id="Vector_6" d="M62.2188 19.824C68.9068 22.2068 75.0762 26.6836 79.3279 32.949L89.5232 27.0311C82.2145 15.2561 67.4111 6.05469 50.5 6.05469V35.3516H62.2188V19.824Z" fill="#D93752"/>
<path id="Vector_7" d="M50.5 0C45.6459 0 41.7109 4.13027 41.7109 8.98438C41.7109 13.8385 45.6459 17.7734 50.5 17.7734C55.3541 17.7734 59.2891 13.8385 59.2891 8.98438C59.2891 4.13027 55.3541 0 50.5 0Z" fill="#FFE6CC"/>
<path id="Vector_8" d="M59.2891 8.98438C59.2891 4.13027 55.3541 0 50.5 0V17.7734C55.3541 17.7734 59.2891 13.8385 59.2891 8.98438Z" fill="#FFCCB3"/>
</g>
<path id="Vector_9" d="M20.4932 70.2592C17.9594 65.8699 12.3424 64.791 8.53735 66.9994C4.32778 69.4209 2.88657 74.8031 5.31586 79.0043C7.71274 83.1539 13.0747 84.6713 17.3235 82.2201C21.2661 79.9488 23.1036 74.7836 20.4932 70.2592Z" fill="#FFE6CC"/>
<path id="Vector_10" d="M17.3235 82.2201C21.2661 79.949 23.1036 74.7836 20.4933 70.2592L5.31592 79.0043C7.7126 83.1539 13.0745 84.6713 17.3235 82.2201Z" fill="#FFCCB3"/>
<path id="Vector_11" d="M92.462 66.9963C88.0767 64.4643 82.9677 66.1948 80.4587 70.2317C78.1271 73.9842 79.2306 79.6559 83.6757 82.2198C87.9347 84.678 93.3017 83.1274 95.6833 79.0039C98.0839 74.8473 96.7228 69.4557 92.462 66.9963Z" fill="#E77B45"/>
<path id="Vector_12" d="M92.4618 66.9963C88.0765 64.4643 82.9675 66.1948 80.4585 70.2317L95.6833 79.0039C98.0837 74.8473 96.7226 69.4557 92.4618 66.9963Z" fill="#CC5229"/>
</g>
</g>
</svg>
