<svg width="100" height="100" viewBox="0 0 100 100" fill="none" xmlns="http://www.w3.org/2000/svg">
<g id="innovation 1">
<g id="Group">
<g id="Group_2">
<g id="Group_3">
<g id="Group_4">
<path id="Vector" d="M85.4007 65.4554V90.2758C85.4007 94.8383 81.7035 98.5355 77.141 98.5355H49.1468C37.4566 91.7853 37.4566 69.1552 47.6937 65.4554H85.4007Z" fill="#FF6E80"/>
<path id="Vector_2" d="M49.147 98.5355H22.8599C18.2974 98.5355 14.6001 94.8383 14.6001 90.2758V65.4554H47.6938C41.9731 70.7426 41.5103 89.6078 49.147 98.5355Z" fill="#FD5C6F"/>
</g>
<g id="Group_5">
<g id="Group_6">
<path id="Vector_3" d="M67.1116 18.5761C67.1116 23.5136 65.0218 27.9608 61.678 31.0839C59.2698 33.3319 57.9476 36.5096 57.9476 39.8026V41.4725H51.1311C51.2307 40.7655 50.7046 39.7835 50.3362 39.0995C43.9849 27.3052 43.1556 5.46843 55.5354 2.37878C62.2698 4.67957 67.1116 11.0624 67.1116 18.5761Z" fill="#FCE3A0"/>
<path id="Vector_4" d="M51.1116 39.2618C51.2646 40.0234 51.2308 40.7657 51.1312 41.4728H42.053V39.9083C42.053 36.5314 40.6605 33.3068 38.2132 30.9806C34.9105 27.84 32.8597 23.3946 32.889 18.4708C32.9437 9.35363 40.6312 1.59777 49.7484 1.46691C51.7757 1.43762 53.7249 1.76184 55.5355 2.37902C45.6521 9.46262 47.93 23.4101 51.1116 39.2618Z" fill="#F9D171"/>
<path id="Vector_5" d="M57.9476 42.6583V49.5646C57.9476 52.7853 56.0335 55.5548 53.2835 56.8048C51.0995 56.9489 50.2651 55.8556 49.5952 55.1837C48.1558 53.7462 47.2671 51.7599 47.2671 49.5646L48.6194 42.6583H57.9476Z" fill="#83DEFF"/>
<path id="Vector_6" d="M53.2837 56.8048C52.2837 57.2599 51.1704 57.5118 50.0005 57.5118C47.8052 57.5118 45.8188 56.6232 44.3813 55.1837C42.9419 53.7462 42.0532 51.7599 42.0532 49.5646V42.6583H48.6196V49.5646C48.6196 51.7599 49.5083 53.7462 50.9478 55.1837C51.6177 55.8556 52.4087 56.4064 53.2837 56.8048Z" fill="#5AD6FF"/>
<path id="Vector_7" d="M64.0258 42.7775C64.0258 43.7931 63.6137 44.713 62.9496 45.379C62.2836 46.0431 61.3637 46.4552 60.348 46.4552H50.3363C46.1287 46.4552 45.2764 44.8087 45.2764 42.7775C45.2764 41.7618 45.6885 40.8419 46.3525 40.1759C47.0186 39.5118 48.0256 39.0997 50.3363 39.0997H60.348C62.3793 39.0997 64.0258 40.7462 64.0258 42.7775Z" fill="#77899B"/>
<path id="Vector_8" d="M50.3364 46.4552H39.6528C37.6216 46.4552 35.9751 44.8087 35.9751 42.7775C35.9751 41.7618 36.3872 40.8419 37.0513 40.1759C37.7173 39.5118 38.6372 39.0997 39.6528 39.0997H50.3364C49.3208 39.0997 48.4009 39.5118 47.7349 40.1759C47.0708 40.8419 46.6587 41.7618 46.6587 42.7775C46.6587 44.8087 48.3052 46.4552 50.3364 46.4552Z" fill="#6B7D8E"/>
</g>
</g>
<g id="Group_7">
<g id="Group_8">
<path id="Vector_9" d="M29.5532 35.0743L26.0258 38.5118L26.8598 43.3673C27.1762 45.211 25.2407 46.6173 23.5844 45.7462L19.2231 43.4552C12.7088 38.0399 18.1045 25.4604 21.6469 26.9044L23.4282 30.5138L28.3032 31.2227C30.1547 31.4923 30.893 33.7677 29.5532 35.0743Z" fill="#FCE3A0"/>
<path id="Vector_10" d="M19.223 43.4552L14.8636 45.7462C13.2074 46.6173 11.2718 45.2111 11.5882 43.3673L12.4203 38.5118L8.89293 35.0743C7.55309 33.7677 8.29332 31.4923 10.1449 31.2228L15.0199 30.5138L17.1996 26.0978C18.0277 24.42 20.4203 24.42 21.2484 26.0978L21.6468 26.9044C18.9515 27.2167 14.7777 35.9083 19.223 43.4552Z" fill="#F9D171"/>
</g>
<g id="Group_9">
<path id="Vector_11" d="M91.1069 35.0743L87.5795 38.5118L88.4135 43.3673C88.7299 45.211 86.7944 46.6173 85.1381 45.7462L80.7768 43.4552C74.2625 38.0399 79.6583 25.4604 83.2006 26.9044L84.9819 30.5138L89.8569 31.2227C91.7084 31.4923 92.4467 33.7677 91.1069 35.0743Z" fill="#FCE3A0"/>
<path id="Vector_12" d="M80.7767 43.4552L76.4173 45.7462C74.7611 46.6173 72.8255 45.2111 73.142 43.3673L73.974 38.5118L70.4466 35.0743C69.1068 33.7677 69.847 31.4923 71.6986 31.2228L76.5736 30.5138L78.7533 26.0978C79.5814 24.42 81.974 24.42 82.8021 26.0978L83.2005 26.9044C80.5052 27.2167 76.3314 35.9083 80.7767 43.4552Z" fill="#F9D171"/>
</g>
</g>
</g>
</g>
<g id="Group_10">
<path id="Vector_13" d="M85.4009 65.4555L91.7915 53.2567" stroke="black" stroke-width="2" stroke-miterlimit="10" stroke-linecap="round" stroke-linejoin="round"/>
<path id="Vector_14" d="M8.20947 53.2567L14.6001 65.4555" stroke="black" stroke-width="2" stroke-miterlimit="10" stroke-linecap="round" stroke-linejoin="round"/>
<path id="Vector_15" d="M39.6522 39.1002H60.3485C62.3794 39.1002 64.0257 40.7465 64.0257 42.7774C64.0257 44.8082 62.3794 46.4545 60.3485 46.4545H39.6522C37.6214 46.4545 35.9751 44.8082 35.9751 42.7774C35.9753 40.7465 37.6216 39.1002 39.6522 39.1002Z" stroke="black" stroke-width="2" stroke-miterlimit="10" stroke-linecap="round" stroke-linejoin="round"/>
<path id="Vector_16" d="M50.0005 39.1002V25.1191" stroke="black" stroke-width="2" stroke-miterlimit="10" stroke-linecap="round" stroke-linejoin="round"/>
<path id="Vector_17" d="M46.3228 19.9L50.0003 25.1192L53.6778 19.9" stroke="black" stroke-width="2" stroke-miterlimit="10" stroke-linecap="round" stroke-linejoin="round"/>
<path id="Vector_18" d="M19.224 43.4541L14.864 45.7463C13.2077 46.617 11.2722 45.2105 11.5884 43.3664L12.421 38.5115L8.89369 35.0732C7.55384 33.7672 8.2931 31.4916 10.1449 31.2227L15.0195 30.5143L17.1995 26.0971C18.0277 24.4191 20.4202 24.4191 21.2484 26.0971L23.4284 30.5143L28.3031 31.2227C30.1548 31.4918 30.8941 33.7672 29.5542 35.0732L26.0269 38.5115L26.8595 43.3664C27.1757 45.2105 25.2402 46.617 23.5839 45.7463L19.224 43.4541Z" stroke="black" stroke-width="2" stroke-miterlimit="10" stroke-linecap="round" stroke-linejoin="round"/>
<path id="Vector_19" d="M80.7767 43.4541L76.4167 45.7463C74.7605 46.617 72.8249 45.2105 73.1411 43.3664L73.9738 38.5115L70.4464 35.0732C69.1066 33.7672 69.8458 31.4916 71.6976 31.2227L76.5722 30.5143L78.7523 26.0971C79.5804 24.4191 81.973 24.4191 82.8011 26.0971L84.9812 30.5143L89.8558 31.2227C91.7076 31.4918 92.4468 33.7672 91.107 35.0732L87.5796 38.5115L88.4122 43.3664C88.7285 45.2105 86.7929 46.617 85.1367 45.7463L80.7767 43.4541Z" stroke="black" stroke-width="2" stroke-miterlimit="10" stroke-linecap="round" stroke-linejoin="round"/>
<path id="Vector_20" d="M25.7954 90.0237V73.4136L37.0255 89.6753C37.2337 89.9761 37.4567 89.8288 37.4567 89.4628L37.3013 73.3823" stroke="black" stroke-width="2" stroke-miterlimit="10" stroke-linecap="round" stroke-linejoin="round"/>
<path id="Vector_21" d="M50.3204 73.5344H43.3726V90.0237H50.3204" stroke="black" stroke-width="2" stroke-miterlimit="10" stroke-linecap="round" stroke-linejoin="round"/>
<path id="Vector_22" d="M49.8083 81.7789H43.3726" stroke="black" stroke-width="2" stroke-miterlimit="10" stroke-linecap="round" stroke-linejoin="round"/>
<path id="Vector_23" d="M56.1763 73.967L59.4185 90.3585C59.5376 90.694 60.0134 90.6909 60.128 90.3536L65.1905 73.9977" stroke="black" stroke-width="2" stroke-miterlimit="10" stroke-linecap="round" stroke-linejoin="round"/>
<path id="Vector_24" d="M65.1909 73.967L70.2405 90.3585C70.3597 90.694 70.8354 90.6909 70.9501 90.3536L74.2054 73.9977" stroke="black" stroke-width="2" stroke-miterlimit="10" stroke-linecap="round" stroke-linejoin="round"/>
<path id="Vector_25" d="M14.6001 78.6299V90.276C14.6001 94.8375 18.2979 98.5352 22.8593 98.5352H77.1415C81.703 98.5352 85.4007 94.8373 85.4007 90.276V65.4557H14.6001V71.7942" stroke="black" stroke-width="2" stroke-miterlimit="10" stroke-linecap="round" stroke-linejoin="round"/>
<path id="Vector_26" d="M57.9697 39.1002C58.1439 36.0606 59.4426 33.1713 61.6781 31.0834C65.0219 27.9606 67.1123 23.5131 67.1123 18.5768C67.1123 15.0838 66.0648 11.8362 64.2682 9.12854" stroke="black" stroke-width="2" stroke-miterlimit="10" stroke-linecap="round" stroke-linejoin="round"/>
<path id="Vector_27" d="M59.4323 4.29693C56.663 2.46412 53.3296 1.4151 49.7482 1.46666C40.6321 1.59791 32.9439 9.35435 32.889 18.4712C32.8593 23.3954 34.9099 27.8403 38.2132 30.9799C40.465 33.1202 41.8202 36.0204 42.0234 39.1001" stroke="black" stroke-width="2" stroke-miterlimit="10" stroke-linecap="round" stroke-linejoin="round"/>
<path id="Vector_28" d="M42.0532 46.4543V49.5653C42.0532 53.9543 45.6114 57.5125 50.0005 57.5125C54.3897 57.5125 57.9478 53.9543 57.9478 49.5653V46.4543" stroke="black" stroke-width="2" stroke-miterlimit="10" stroke-linecap="round" stroke-linejoin="round"/>
</g>
</g>
</g>
</svg>
