<svg width="100" height="100" viewBox="0 0 100 100" fill="none" xmlns="http://www.w3.org/2000/svg">
<g id="messaging 1">
<path id="Vector" d="M72.1614 33.5899C84.8014 34.6299 95.4514 43.4199 98.8714 55.6299C102.281 67.8399 97.7414 80.8799 87.4714 88.3199C89.2714 91.6799 92.0614 94.3999 95.4614 96.1199C94.9614 96.3699 84.0214 101.84 75.2214 93.5599C72.7814 93.9999 70.2914 94.1499 67.8114 93.9999C57.0214 93.2299 47.4614 86.7599 42.7314 77.0299C38.0014 67.2999 38.8214 55.7799 44.8814 46.8199C50.9514 37.8599 61.3314 32.8099 72.1214 33.5799L72.1614 33.5899ZM69.6014 66.9299H56.2714C55.5814 66.9199 54.9214 67.1899 54.4314 67.6799C53.9414 68.1699 53.6714 68.8299 53.6714 69.5199C53.6714 70.9599 54.8314 72.1199 56.2714 72.1199H69.6014C71.0414 72.1199 72.2014 70.9499 72.2014 69.5199C72.1814 68.0999 71.0314 66.9499 69.6014 66.9499V66.9299ZM85.6514 55.3999H56.0214C55.3314 55.3999 54.6714 55.6699 54.1914 56.1599C53.7014 56.6499 53.4314 57.3099 53.4314 57.9999C53.4314 58.6899 53.7114 59.3499 54.1914 59.8299C54.6814 60.3199 55.3414 60.5899 56.0214 60.5899H85.6514C86.3414 60.5899 87.0014 60.3199 87.4914 59.8299C87.9714 59.3499 88.2514 58.6899 88.2514 57.9999C88.2414 56.5699 87.0814 55.4199 85.6514 55.4199V55.3999Z" fill="white"/>
<path id="Vector_2" opacity="0.4" d="M31.5583 4.57001C46.6483 4.56001 59.4483 15.66 61.5783 30.6C46.2683 34.34 35.4983 48.07 35.5183 63.83C35.5183 64.2 35.5183 64.57 35.5183 64.94C34.1983 65.11 32.8583 65.2 31.5283 65.2C29.6783 65.2 27.8383 65.03 26.0183 64.7C17.0083 73.17 5.74832 67.26 5.74832 67.26C9.14832 65.53 11.9383 62.81 13.7483 59.46C3.03832 51.77 -1.46168 38.05 2.59832 25.51C6.66832 12.97 18.3783 4.50001 31.5583 4.57001ZM28.9283 38.01H15.5783C14.1483 38.02 12.9883 39.18 12.9883 40.62C12.9883 41.3 13.2583 41.96 13.7483 42.45C14.2283 42.94 14.8883 43.21 15.5783 43.21H28.9283C29.6083 43.21 30.2683 42.94 30.7583 42.45C31.2483 41.96 31.5183 41.3 31.5183 40.62C31.5183 39.18 30.3583 38.02 28.9283 38.01ZM45.1983 26.49H15.5683C14.1383 26.49 12.9783 27.65 12.9783 29.09C12.9583 29.78 13.2283 30.46 13.7183 30.96C14.2083 31.45 14.8783 31.73 15.5783 31.73H45.2083C45.8983 31.73 46.5583 31.45 47.0483 30.96C47.5283 30.48 47.8083 29.81 47.7983 29.12C47.8083 28.43 47.5383 27.76 47.0483 27.26C46.5583 26.77 45.8883 26.49 45.1983 26.49Z" fill="white"/>
</g>
</svg>
