<svg width="100" height="100" viewBox="0 0 100 100" fill="none" xmlns="http://www.w3.org/2000/svg">
<g id="food-safety (1) 1" clip-path="url(#clip0_54_7476)">
<g id="g1902">
<g id="g1904">
<g id="Clip path group">
<mask id="mask0_54_7476" style="mask-type:luminance" maskUnits="userSpaceOnUse" x="0" y="0" width="100" height="100">
<g id="clipPath1910">
<path id="path1908" d="M0 7.62939e-06H100V100H0V7.62939e-06Z" fill="white"/>
</g>
</mask>
<g mask="url(#mask0_54_7476)">
<g id="g1906">
<g id="g1912">
<path id="path1914" d="M98.5351 50C98.5351 76.8053 76.8053 98.5352 50 98.5352C23.1947 98.5352 1.46484 76.8053 1.46484 50C1.46484 23.1947 23.1947 1.46485 50 1.46485C76.8053 1.46485 98.5351 23.1947 98.5351 50Z" fill="#BEE49D"/>
</g>
<g id="g1916">
<path id="path1918" d="M50 1.46485C49.016 1.46485 48.0398 1.49767 47.0703 1.55528C72.5109 3.07052 92.6758 24.1787 92.6758 50C92.6758 75.8213 72.5109 96.9295 47.0703 98.4447C48.0398 98.5023 49.016 98.5352 50 98.5352C76.8051 98.5352 98.5352 76.8053 98.5352 50C98.5352 23.1947 76.8051 1.46485 50 1.46485Z" fill="#A3D8A4"/>
</g>
<g id="g1920">
<path id="path1922" d="M50 90.7227C27.5455 90.7227 9.27734 72.4545 9.27734 50C9.27734 27.5455 27.5455 9.27734 50 9.27734C72.4545 9.27734 90.7227 27.5455 90.7227 50C90.7227 72.4545 72.4545 90.7227 50 90.7227Z" fill="white"/>
</g>
<g id="g1924">
<path id="path1926" d="M98.5352 16.2109C98.5352 24.3549 91.933 30.957 83.7891 30.957C75.6451 30.957 69.043 24.3549 69.043 16.2109C69.043 8.06699 75.6451 1.46485 83.7891 1.46485C91.933 1.46485 98.5352 8.06699 98.5352 16.2109Z" fill="#A3D8A4"/>
</g>
<g id="g1928">
<path id="path1930" d="M83.7891 1.46485C82.7857 1.46485 81.8064 1.56602 80.8594 1.75684C87.5998 3.11582 92.6758 9.07012 92.6758 16.2109C92.6758 23.3518 87.5998 29.3061 80.8594 30.665C81.8064 30.8559 82.7857 30.957 83.7891 30.957C91.933 30.957 98.5352 24.3549 98.5352 16.2109C98.5352 8.06699 91.933 1.46485 83.7891 1.46485Z" fill="#8FCC8F"/>
</g>
<g id="g1932">
<path id="path1934" d="M33.6334 56.0943L34.7533 59.062H32.5031L33.6334 56.0943ZM28.8498 64.539C29.6049 64.8271 30.452 64.4476 30.74 63.6913L31.3873 61.9917H35.859L36.4988 63.6872C36.7869 64.4534 37.6457 64.8202 38.3865 64.5406C39.1434 64.255 39.5254 63.4097 39.2396 62.6529L35.2346 52.0402C35.2297 52.0267 35.2244 52.0134 35.2189 52.0003C34.9545 51.3568 34.3342 50.9413 33.6385 50.9413H33.6369C32.9406 50.9419 32.3203 51.3587 32.0568 52.0034C32.0523 52.0144 32.048 52.0253 32.0437 52.0365L28.0021 62.6488C27.7141 63.4048 28.0937 64.2511 28.8498 64.539ZM40.5623 38.2951C42.7221 38.2951 44.4793 40.0523 44.4793 42.212C44.4793 44.372 42.7221 46.1292 40.5623 46.1292C38.4023 46.1292 36.6451 44.372 36.6451 42.212C36.6451 40.0523 38.4023 38.2951 40.5623 38.2951ZM40.5623 49.0589C44.3377 49.0589 47.409 45.9874 47.409 42.212C47.409 38.4368 44.3377 35.3654 40.5623 35.3654C36.7869 35.3654 33.7154 38.4368 33.7154 42.212C33.7154 45.9874 36.7869 49.0589 40.5623 49.0589ZM42.3828 52.4849V63.17C42.3828 63.979 43.0385 64.6349 43.8477 64.6349C44.6566 64.6349 45.3125 63.979 45.3125 63.17V59.1911H47.8342C48.6434 59.1911 49.299 58.5353 49.299 57.7263C49.299 56.9173 48.6434 56.2615 47.8342 56.2615H45.3125V53.9497H48.1783C48.9873 53.9497 49.6432 53.2939 49.6432 52.4849C49.6432 51.6759 48.9873 51.02 48.1783 51.02H43.8477C43.0385 51.02 42.3828 51.6759 42.3828 52.4849ZM25.6437 49.0589C26.4527 49.0589 27.1086 48.4031 27.1086 47.5941V43.6152H29.6305C30.4395 43.6152 31.0953 42.9595 31.0953 42.1503C31.0953 41.3413 30.4395 40.6855 29.6305 40.6855H27.1086V38.3738H29.9744C30.7834 38.3738 31.4393 37.7181 31.4393 36.9089C31.4393 36.0999 30.7834 35.4441 29.9744 35.4441H25.6437C24.8346 35.4441 24.1789 36.0999 24.1789 36.9089V47.5941C24.1789 48.4031 24.8346 49.0589 25.6437 49.0589ZM88.273 11.2898L81.5379 18.0249L79.3051 15.7919C78.7328 15.2201 77.8055 15.2201 77.2332 15.7919C76.6613 16.364 76.6613 17.2915 77.2332 17.8636L79.9496 20.5798C80.374 21.004 80.9379 21.2378 81.5379 21.2378C82.1379 21.2378 82.7018 21.004 83.1262 20.5798L90.3447 13.3615C90.9168 12.7894 90.9168 11.8618 90.3447 11.2898C89.7728 10.7177 88.8455 10.7175 88.273 11.2898ZM26.0328 61.0947C26.3094 59.5462 25.6125 57.5259 22.8275 56.4986C21.526 56.0185 20.3129 55.496 19.9189 55.324C19.6854 55.1263 19.6937 54.8566 19.7102 54.7429C19.7342 54.5757 19.8576 54.1661 20.4826 53.9779C21.933 53.5406 23.29 54.6052 23.3348 54.6408C23.9539 55.154 24.8723 55.072 25.3904 54.4552C25.9109 53.8361 25.8311 52.912 25.2117 52.3915C25.1082 52.3042 22.6395 50.2687 19.6377 51.1726C18.1066 51.6339 17.0232 52.8423 16.8102 54.3267C16.3961 57.212 18.4031 57.9892 21.8135 59.2472C22.1598 59.3749 23.2793 59.8484 23.1486 60.5798C23.0498 61.1329 22.3637 61.7052 21.3859 61.7052C20.3492 61.7052 19.3527 61.2886 18.7205 60.5908C18.177 59.9909 17.2504 59.9462 16.6514 60.489C16.0518 61.0324 16.0062 61.9585 16.5494 62.5581C17.7455 63.8781 19.5084 64.6349 21.3859 64.6349C23.7123 64.6349 25.6666 63.146 26.0328 61.0947ZM97.0703 50.0001C97.0703 75.5699 75.6603 97.0704 50 97.0704C23.941 97.0704 2.92969 75.9247 2.92969 50.0001C2.92969 23.8999 24.057 2.92982 50 2.92982C57.0746 2.92982 63.8461 4.45364 70.1566 7.4556C69.2767 8.82083 68.5963 10.3251 68.1564 11.9288C62.5174 9.23392 56.2822 7.81263 50 7.81263C26.7377 7.81263 7.8125 26.7378 7.8125 50.0001C7.8125 59.9595 11.3625 69.6335 17.8084 77.24C18.3334 77.8597 19.2584 77.9312 19.8729 77.4105C20.49 76.8874 20.5664 75.9632 20.0434 75.346C14.0453 68.2681 10.7422 59.2667 10.7422 50.0001C10.7422 28.3532 28.3531 10.7423 50 10.7423C56.1223 10.7423 62.1961 12.1904 67.6332 14.9331C67.6 15.3554 67.5781 15.7806 67.5781 16.2111C67.5781 25.1497 74.8502 32.422 83.7891 32.422C84.2195 32.422 84.6447 32.4001 85.0668 32.3669C87.8096 37.804 89.2578 43.8781 89.2578 50.0001C89.2578 71.647 71.6469 89.2579 50 89.2579C40.7359 89.2579 31.7367 85.9564 24.66 79.9616C24.0426 79.4386 23.1182 79.5152 22.5953 80.1325C22.0725 80.7497 22.1488 81.6741 22.7662 82.197C30.3717 88.6396 40.0434 92.1876 50 92.1876C73.2621 92.1876 92.1875 73.2624 92.1875 50.0001C92.1875 43.7179 90.7662 37.4825 88.0711 31.8437C89.675 31.4038 91.1791 30.7234 92.5443 29.8435C95.5467 36.1536 97.0703 42.9253 97.0703 50.0001ZM100 16.2111C100 12.8292 98.9689 9.5886 97.0178 6.83919C96.5502 6.17962 95.6355 6.02396 94.9756 6.49232C94.3156 6.96048 94.1603 7.87473 94.6287 8.5347C96.226 10.7859 97.0703 13.4402 97.0703 16.2111C97.0703 23.5343 91.1123 29.4923 83.7891 29.4923C76.4658 29.4923 70.5078 23.5343 70.5078 16.2111C70.5078 8.88783 76.4658 2.92982 83.7891 2.92982C85.9891 2.92982 88.1676 3.47826 90.0896 4.51614C90.8019 4.90033 91.69 4.6349 92.0746 3.92318C92.459 3.21127 92.1934 2.32259 91.4816 1.93822C89.1332 0.67025 86.4732 0.0001297 83.7891 0.0001297C79.1506 0.0001297 74.9639 1.96146 72.0062 5.09466C65.2051 1.7595 57.6225 0.0001297 50 0.0001297C22.2566 0.0001297 0 22.449 0 50.0001C0 77.1601 22.424 100 50 100C77.1078 100 100 77.2935 100 50.0001C100 42.3773 98.2406 34.7945 94.9055 27.9937C98.0387 25.0361 100 20.8495 100 16.2111ZM70.1379 38.6134C72.6928 38.6134 72.8914 41.4898 72.8914 42.3714C72.8914 44.9191 71.5391 46.0831 70.199 46.1064C69.8426 46.1126 69.2357 46.1177 68.6607 46.1214C68.6568 44.8974 68.6521 43.2191 68.6521 42.3599C68.6521 41.64 68.6492 39.8882 68.6473 38.6134H70.1379ZM67.2008 49.0589H67.2064C67.2959 49.0585 69.4061 49.0505 70.2502 49.0357C73.4781 48.9794 75.8211 46.1767 75.8211 42.3714C75.8211 38.3712 73.5373 35.6837 70.1379 35.6837H67.1797C66.3824 35.6798 65.7096 36.3544 65.7148 37.1513V37.1591V37.1595V47.4243C65.7084 48.2734 66.3006 49.0589 67.2008 49.0589ZM74.716 51.1796C74.0387 51.622 73.8478 52.5296 74.2902 53.207L77.4891 58.106L77.4768 63.1663C77.4748 63.9755 78.1289 64.6329 78.9379 64.6349H78.9416C79.7488 64.6349 80.4045 63.9814 80.4064 63.1738L80.4187 58.1079L83.5926 53.2325C84.034 52.5544 83.8422 51.647 83.1643 51.2058C82.4863 50.7646 81.5785 50.9562 81.1375 51.6343L78.9531 54.9896L76.7435 51.6052C76.301 50.9277 75.3936 50.7372 74.716 51.1796ZM56.2393 38.2951C58.3992 38.2951 60.1564 40.0523 60.1564 42.212C60.1564 44.372 58.3992 46.1292 56.2393 46.1292C54.0795 46.1292 52.3223 44.372 52.3223 42.212C52.3223 40.0523 54.0795 38.2951 56.2393 38.2951ZM56.2393 49.0589C60.0146 49.0589 63.0861 45.9874 63.0861 42.212C63.0861 38.4368 60.0146 35.3654 56.2393 35.3654C52.4639 35.3654 49.3926 38.4368 49.3926 42.212C49.3926 45.9874 52.4639 49.0589 56.2393 49.0589ZM58.6853 53.9693C59.4943 53.9693 60.1502 53.3134 60.1502 52.5044C60.1502 51.6954 59.4943 51.0396 58.6853 51.0396H54.1912C53.382 51.0396 52.7264 51.6954 52.7264 52.5044V63.17C52.7264 63.979 53.382 64.6349 54.1912 64.6349H58.6853C59.4943 64.6349 60.1502 63.979 60.1502 63.17C60.1502 62.3611 59.4943 61.7052 58.6853 61.7052H55.656V59.3021H58.3539C59.1631 59.3021 59.8187 58.6462 59.8187 57.8372C59.8187 57.0282 59.1631 56.3724 58.3539 56.3724H55.656V53.9693H58.6853ZM64.2734 53.871H65.7688V63.17C65.7688 63.979 66.4246 64.6349 67.2336 64.6349C68.0428 64.6349 68.6984 63.979 68.6984 63.17V53.871H70.2178C71.0269 53.871 71.6826 53.2152 71.6826 52.4062C71.6826 51.5972 71.0269 50.9413 70.2178 50.9413H64.2734C63.4643 50.9413 62.8086 51.5972 62.8086 52.4062C62.8086 53.2152 63.4643 53.871 64.2734 53.871Z" fill="black"/>
</g>
</g>
</g>
</g>
</g>
</g>
</g>
<defs>
<clipPath id="clip0_54_7476">
<rect width="100" height="100" fill="white"/>
</clipPath>
</defs>
</svg>
