<svg width="54" height="50" viewBox="0 0 54 50" fill="none" xmlns="http://www.w3.org/2000/svg">
<path d="M42.8242 19.6761L45.0696 19.7007L46.0977 27.6528C46.0977 27.6868 46.0809 27.7209 46.0473 27.7402L45.4468 28.0868C45.3912 28.119 45.3226 28.119 45.267 28.0868L44.6223 27.7145C44.5873 27.6943 44.5709 27.6583 44.5723 27.6229H44.5718L42.8242 19.6761Z" fill="url(#paint0_linear_118_4880)"/>
<path d="M38.2137 23.5977L35.9682 23.6222L35.3008 33.0077C35.3008 33.0417 35.3177 33.0756 35.3512 33.0951L35.9517 33.4418C36.0073 33.4739 36.0759 33.4739 36.1315 33.4418L36.7762 33.0695C36.8112 33.0492 36.8276 33.0133 36.8261 32.9778H36.8266L38.2137 23.5977Z" fill="url(#paint1_linear_118_4880)"/>
<path d="M30.9461 19.3984L28.7007 19.423L28.0332 28.8085C28.0332 28.8424 28.05 28.8764 28.0836 28.8959L28.6842 29.2426C28.7398 29.2747 28.8083 29.2747 28.8639 29.2426L29.5086 28.8703C29.5437 28.85 29.56 28.8141 29.5586 28.7786H29.5592L30.9461 19.3984Z" fill="url(#paint2_linear_118_4880)"/>
<path d="M45.9792 16.2884L45.6144 18.7933C45.5085 19.3013 45.1909 19.7401 44.7415 19.9995L42.9854 21.0134L37.4808 24.1915C36.7647 24.6049 35.8824 24.6049 35.1663 24.1915L29.1983 20.7317C28.7766 20.4882 28.5654 20.0623 28.5646 19.6362H28.5645V16.8925L45.9792 16.2884Z" fill="url(#paint3_linear_118_4880)"/>
<path d="M34.2448 13.1106L36.298 2.86604C36.5863 1.93631 37.2136 1.14897 38.0553 0.660004C38.1983 0.576999 38.3558 0.601573 38.467 0.686689L38.4671 0.686478L47.1747 5.71376L42.9859 18.1593L34.2441 13.1121L34.2448 13.1106Z" fill="url(#paint4_linear_118_4880)"/>
<path d="M45.98 16.2884L47.3435 6.11771C47.423 5.79961 47.0809 5.54237 46.7974 5.70701C45.9557 6.19587 45.3284 6.98331 45.0401 7.91304L42.9863 18.1593L45.98 16.2884Z" fill="url(#paint5_linear_118_4880)"/>
<path d="M42.9853 18.1594L37.4807 21.3374C36.7645 21.7509 35.8823 21.7509 35.1662 21.3374L29.0558 17.8095C28.4007 17.4313 28.4007 16.4856 29.0558 16.1074L34.2436 13.1122L42.9853 18.1594Z" fill="url(#paint6_linear_118_4880)"/>
<path d="M32.4355 36.4186L28.1641 36.4875V48.1087C28.1641 48.2038 28.2111 48.299 28.3053 48.3533L29.9863 49.3238C30.142 49.4137 30.3337 49.4137 30.4894 49.3238L32.2942 48.2818C32.3923 48.2251 32.4381 48.1244 32.434 48.0254H32.4354V36.4186H32.4355Z" fill="url(#paint7_linear_118_4880)"/>
<path d="M48.8476 26.8975L44.5762 26.9663V38.5876C44.5762 38.6827 44.6232 38.7778 44.7174 38.8322L46.3984 39.8027C46.5541 39.8926 46.7459 39.8926 46.9015 39.8027L48.7064 38.7607C48.8045 38.704 48.8503 38.6033 48.8462 38.5043H48.8476V26.8975Z" fill="url(#paint8_linear_118_4880)"/>
<path d="M11.5078 24.2693L7.23633 24.3381V35.9594C7.23633 36.0545 7.28337 36.1496 7.37755 36.204L9.05855 37.1745C9.21423 37.2644 9.40608 37.2644 9.56165 37.1745L11.3666 36.1324C11.4647 36.0758 11.5104 35.9751 11.5063 35.876L11.5078 35.8759V24.2693Z" fill="url(#paint9_linear_118_4880)"/>
<path d="M45.4082 19.5488L27.7107 9.33115C26.6382 8.71192 25.3167 8.71192 24.2442 9.33115L12.918 15.9186L7.33516 16.6452V27.8798C7.30173 28.3918 7.53608 28.919 8.04372 29.2123L28.5641 41.0596C29.6366 41.6788 30.9581 41.6788 32.0306 41.0596L48.2311 31.6581C48.7074 31.3831 48.9456 30.9019 48.9456 30.4206V19.0885L45.4082 19.5488Z" fill="url(#paint10_linear_118_4880)"/>
<path d="M32.0308 29.7274L30.2974 28.8935L28.5642 29.7274L25.2331 39.0404C24.6961 40.9846 25.4856 43.0523 27.1819 44.1437L29.1535 45.4123C29.8503 45.8607 30.7447 45.8607 31.4415 45.4123L33.4131 44.1437C35.1093 43.0523 35.8989 40.9846 35.3618 39.0404L32.0308 29.7274Z" fill="url(#paint11_linear_118_4880)"/>
<path d="M7.38474 16.2532L2.36189 28.0156C2.05127 28.9129 2.6975 29.8548 3.64653 29.8878L9.57148 30.0939L8.12863 16.9568L7.38474 16.2532Z" fill="url(#paint12_linear_118_4880)"/>
<path d="M48.8978 18.6916L53.9206 30.454C54.2312 31.3513 53.585 32.2932 52.636 32.3262L46.7109 32.5323L48.1539 19.3952L48.8978 18.6916Z" fill="url(#paint13_linear_118_4880)"/>
<path d="M8.04446 15.4051L24.2449 6.00363C25.3175 5.38441 26.6389 5.38441 27.7115 6.00363L48.2318 17.851C49.1845 18.4009 49.1845 19.776 48.2318 20.3259L32.0314 29.7274C30.9588 30.3466 29.6374 30.3466 28.5648 29.7274L8.04446 17.88C7.09195 17.33 7.09195 15.9551 8.04446 15.4051Z" fill="#E9E5F6"/>
<path d="M12.9062 20.6949L33.0219 9.03296L44.0688 15.4108L23.9531 27.0728L12.9062 20.6949Z" fill="#7662BD"/>
<path d="M12.9062 20.6949V28.1333L23.9531 34.511V27.0728L12.9062 20.6949Z" fill="url(#paint14_linear_118_4880)"/>
<path d="M18.2871 34.9091L20.5326 34.9338L21.5607 42.8859C21.5607 42.9199 21.5438 42.954 21.5103 42.9733L20.9098 43.32C20.8542 43.3521 20.7856 43.3521 20.73 43.32L20.0853 42.9476C20.0502 42.9274 20.0339 42.8914 20.0354 42.8561H20.0349L18.2871 34.9091Z" fill="url(#paint15_linear_118_4880)"/>
<path d="M13.6785 38.8307L11.433 38.8552L10.7656 48.2407C10.7656 48.2747 10.7824 48.3086 10.816 48.3281L11.4166 48.6748C11.4722 48.7069 11.5407 48.7069 11.5963 48.6748L12.2411 48.3025C12.2761 48.2823 12.2924 48.2463 12.2909 48.2108H12.2915L13.6785 38.8307Z" fill="url(#paint16_linear_118_4880)"/>
<path d="M6.41095 34.6314L4.16557 34.656L3.49805 44.0415C3.49805 44.0754 3.51482 44.1094 3.54846 44.1289L4.14902 44.4756C4.2046 44.5077 4.27315 44.5077 4.32874 44.4756L4.97348 44.1033C5.0085 44.083 5.02485 44.0471 5.02337 44.0116H5.0239L6.41095 34.6314Z" fill="url(#paint17_linear_118_4880)"/>
<path d="M20.7938 33.1768L14.6638 36.7304L5.92188 31.6833L12.6163 27.8026C13.4496 27.3195 14.4774 27.3187 15.3114 27.8003L20.7919 30.9644C21.6431 31.4557 21.6442 32.6839 20.7938 33.1768Z" fill="url(#paint18_linear_118_4880)"/>
<path d="M10.5958 27.0396C10.5958 27.0396 2.00423 22.0487 1.82018 21.9803L1.81185 21.9754L1.81206 21.9768C1.72547 21.945 1.63666 21.9183 1.54448 21.9005C0.479646 21.6952 -0.179339 22.5676 0.040147 23.3666L2.75202 33.2388C2.92236 33.859 3.33897 34.3277 3.85662 34.591L3.85683 34.5922L12.5288 39.6076L10.5958 27.0396Z" fill="#43386B"/>
<path d="M10.2652 26.9399C10.9213 27.0664 11.4459 27.5622 11.6662 28.193L14.6437 36.7232L20.4822 33.3524C20.967 33.0725 21.3117 32.6012 21.4316 32.0543V34.9211C21.4316 35.356 21.2004 35.7583 20.8245 35.9771L14.6437 39.5773C13.4165 40.2883 11.8485 39.6459 11.4728 38.2782L8.76085 28.4059C8.54136 27.607 9.20035 26.7347 10.2652 26.9399Z" fill="url(#paint19_linear_118_4880)"/>
<defs>
<linearGradient id="paint0_linear_118_4880" x1="45.4289" y1="23.4896" x2="43.8028" y2="23.9854" gradientUnits="userSpaceOnUse">
<stop stop-color="#CC8241"/>
<stop offset="1" stop-color="#DEA861"/>
</linearGradient>
<linearGradient id="paint1_linear_118_4880" x1="37.3852" y1="28.5318" x2="35.7663" y2="28.5318" gradientUnits="userSpaceOnUse">
<stop stop-color="#CC8241"/>
<stop offset="1" stop-color="#DEA861"/>
</linearGradient>
<linearGradient id="paint2_linear_118_4880" x1="30.1176" y1="24.3325" x2="28.4989" y2="24.3325" gradientUnits="userSpaceOnUse">
<stop stop-color="#CC8241"/>
<stop offset="1" stop-color="#DEA861"/>
</linearGradient>
<linearGradient id="paint3_linear_118_4880" x1="37.8117" y1="20.395" x2="34.7815" y2="20.395" gradientUnits="userSpaceOnUse">
<stop stop-color="#AB2C37"/>
<stop offset="1" stop-color="#FF4757"/>
</linearGradient>
<linearGradient id="paint4_linear_118_4880" x1="41.3213" y1="7.50804" x2="43.4872" y2="3.75643" gradientUnits="userSpaceOnUse">
<stop stop-color="#43386B"/>
<stop offset="1" stop-color="#7662BD"/>
</linearGradient>
<linearGradient id="paint5_linear_118_4880" x1="42.9863" y1="11.9076" x2="47.3552" y2="11.9076" gradientUnits="userSpaceOnUse">
<stop stop-color="#43386B"/>
<stop offset="1" stop-color="#7662BD"/>
</linearGradient>
<linearGradient id="paint6_linear_118_4880" x1="29.5755" y1="20.8545" x2="40.1561" y2="14.7458" gradientUnits="userSpaceOnUse">
<stop stop-color="#FF4757"/>
<stop offset="1" stop-color="#FF7A85"/>
</linearGradient>
<linearGradient id="paint7_linear_118_4880" x1="29.6892" y1="42.905" x2="30.7062" y2="42.905" gradientUnits="userSpaceOnUse">
<stop stop-color="#CC8241"/>
<stop offset="1" stop-color="#DEA861"/>
</linearGradient>
<linearGradient id="paint8_linear_118_4880" x1="46.1013" y1="33.3838" x2="47.1183" y2="33.3838" gradientUnits="userSpaceOnUse">
<stop stop-color="#CC8241"/>
<stop offset="1" stop-color="#DEA861"/>
</linearGradient>
<linearGradient id="paint9_linear_118_4880" x1="8.76144" y1="30.7556" x2="9.7785" y2="30.7556" gradientUnits="userSpaceOnUse">
<stop stop-color="#CC8241"/>
<stop offset="1" stop-color="#DEA861"/>
</linearGradient>
<linearGradient id="paint10_linear_118_4880" x1="7.3321" y1="25.1954" x2="48.9456" y2="25.1954" gradientUnits="userSpaceOnUse">
<stop stop-color="#D7D1EB"/>
<stop offset="1" stop-color="#D7D1EB"/>
</linearGradient>
<linearGradient id="paint11_linear_118_4880" x1="28.2476" y1="37.3211" x2="33.4507" y2="37.3211" gradientUnits="userSpaceOnUse">
<stop stop-color="#D7D1EB"/>
<stop offset="1" stop-color="#E9E5F6"/>
</linearGradient>
<linearGradient id="paint12_linear_118_4880" x1="-0.584346" y1="23.1736" x2="8.27302" y2="23.1736" gradientUnits="userSpaceOnUse">
<stop stop-color="#D7D1EB"/>
<stop offset="1" stop-color="#E9E5F6"/>
</linearGradient>
<linearGradient id="paint13_linear_118_4880" x1="56.8235" y1="25.612" x2="47.282" y2="25.612" gradientUnits="userSpaceOnUse">
<stop stop-color="#D7D1EB"/>
<stop offset="1" stop-color="#E9E5F6"/>
</linearGradient>
<linearGradient id="paint14_linear_118_4880" x1="18.4297" y1="28.1333" x2="18.4297" y2="15.2428" gradientUnits="userSpaceOnUse">
<stop stop-color="#43386B"/>
<stop offset="1" stop-color="#7662BD"/>
</linearGradient>
<linearGradient id="paint15_linear_118_4880" x1="20.8919" y1="38.7226" x2="19.2657" y2="39.2184" gradientUnits="userSpaceOnUse">
<stop stop-color="#CC8241"/>
<stop offset="1" stop-color="#DEA861"/>
</linearGradient>
<linearGradient id="paint16_linear_118_4880" x1="12.8502" y1="43.7648" x2="11.2313" y2="43.7648" gradientUnits="userSpaceOnUse">
<stop stop-color="#CC8241"/>
<stop offset="1" stop-color="#DEA861"/>
</linearGradient>
<linearGradient id="paint17_linear_118_4880" x1="5.58258" y1="39.5655" x2="3.9637" y2="39.5655" gradientUnits="userSpaceOnUse">
<stop stop-color="#CC8241"/>
<stop offset="1" stop-color="#DEA861"/>
</linearGradient>
<linearGradient id="paint18_linear_118_4880" x1="7.19671" y1="35.9865" x2="18.9995" y2="29.1722" gradientUnits="userSpaceOnUse">
<stop stop-color="#43386B"/>
<stop offset="1" stop-color="#7662BD"/>
</linearGradient>
<linearGradient id="paint19_linear_118_4880" x1="21.4316" y1="33.3898" x2="8.71877" y2="33.3898" gradientUnits="userSpaceOnUse">
<stop stop-color="#43386B"/>
<stop offset="1" stop-color="#7662BD"/>
</linearGradient>
</defs>
</svg>
