<svg width="50" height="50" viewBox="0 0 50 50" fill="none" xmlns="http://www.w3.org/2000/svg">
<g id="fi_3059169">
<g id="layer2">
<path id="path3007" d="M21.1001 47.5739C21.0512 48.0358 21.4137 48.4382 21.8783 48.4375H39.0629C39.4943 48.4392 39.8454 48.0908 39.8471 47.6593V40.6296C39.8454 40.1981 39.4943 39.8497 39.0629 39.8514C33.5945 39.8489 28.1308 39.8484 22.6625 39.8455C22.2646 39.8444 21.9295 40.1427 21.8844 40.5381L21.1001 47.5739Z" fill="#FFC6A0"/>
<path id="path3214" d="M21.7031 42.1677C22.3671 42.7248 23.0859 43.2027 23.8209 43.6401C27.8793 46.0554 33.5336 46.4648 37.835 44.458C38.5583 44.1205 39.2327 43.616 39.8474 43.0283V40.6296C39.8457 40.1981 39.4946 39.8497 39.0632 39.8514C33.5948 39.8489 28.1311 39.8484 22.6628 39.8455C22.2649 39.8444 21.9298 40.1427 21.8847 40.5381L21.7031 42.1677Z" fill="#FFAF7A"/>
<path id="path3009" d="M23.4406 13.2813C23.2867 13.2821 23.1365 13.3283 23.0088 13.4141C20.431 15.1328 18.752 18.1867 18.752 21.0969V33.8655C18.752 36.1343 19.3391 37.8396 20.2914 39.1359C21.2437 40.4321 22.5175 41.3023 23.8205 42.0777C27.8789 44.493 33.5333 44.9024 37.8346 42.8956C39.2264 42.2463 40.4481 40.9929 41.3805 39.6775C42.3129 38.3622 42.9818 37.0591 42.9779 35.872L42.9717 14.0611C42.9715 13.9584 42.9511 13.8567 42.9115 13.7619C42.872 13.6671 42.8141 13.581 42.7413 13.5086C42.6685 13.4362 42.582 13.3788 42.487 13.3398C42.392 13.3009 42.2902 13.281 42.1875 13.2814L23.4406 13.2813Z" fill="#FFC6A0"/>
<path id="path3197" d="M24.2187 21.312L18.9778 29.5639L18.752 29.6935V32.3028C18.752 32.3234 18.7534 32.3409 18.7535 32.3606L18.9778 32.2325L24.2188 23.9805L24.2187 21.312ZM29.9556 32.0358C30.0791 32.4872 30.1922 32.9497 30.2546 33.432C30.3243 32.9711 30.3207 32.5008 30.2715 32.0358H29.9556Z" fill="#FFAF7A"/>
<path id="path3193" d="M23.4406 13.2813C23.2867 13.2821 23.1365 13.3283 23.0088 13.4141C20.431 15.1328 18.752 18.1867 18.752 21.0969V33.8655C18.752 36.1343 19.3391 37.8396 20.2914 39.1359C21.2437 40.4321 22.5175 41.3023 23.8205 42.0777C26.3604 43.5893 29.5249 44.3148 32.5921 44.1545C30.0341 44.0408 27.4926 43.3333 25.3829 42.0777C24.0799 41.3023 22.8061 40.4321 21.8538 39.1359C20.9015 37.8396 20.3143 36.1343 20.3143 33.8655V21.0969C20.3143 18.1867 21.9934 15.1328 24.5712 13.4141C24.6989 13.3283 24.8491 13.2821 25.003 13.2813H23.4406Z" fill="#FFAF7A"/>
<path id="path3001" d="M25.7808 1.56251C24.0632 1.56251 22.6621 2.9713 22.6621 4.68904V35.9406C22.6629 36.1467 22.7452 36.3442 22.8909 36.4899C23.0367 36.6357 23.2341 36.7179 23.4402 36.7188H41.4091C43.1267 36.7188 44.5354 35.3115 44.5354 33.5937V4.68904C44.5354 2.9713 43.1267 1.56251 41.4091 1.56251H25.7808Z" fill="#E1F1FF"/>
<g id="Group">
<path id="path3021" d="M16.152 1.56251C15.8301 1.56254 15.5412 1.76005 15.4242 2.05993L14.0983 5.46723C10.1603 5.46723 6.2624 5.46723 2.34541 5.46723C1.79942 5.46658 1.42117 6.01193 1.61304 6.52314L3.62704 11.9904C3.74019 12.2994 4.03488 12.5044 4.36398 12.5031H12.507C12.8294 12.5016 13.1179 12.3023 13.2332 12.001L16.6875 3.12653H18.7412C19.7838 3.12653 19.7838 1.56251 18.7412 1.56251H16.152Z" fill="#FF5555"/>
<path id="circle3023" d="M9.37916 15.6255C9.37916 16.0399 9.54376 16.4373 9.83677 16.7304C10.1298 17.0234 10.5272 17.188 10.9415 17.188C11.3559 17.188 11.7533 17.0234 12.0463 16.7304C12.3393 16.4373 12.5039 16.0399 12.5039 15.6255C12.5039 15.4203 12.4635 15.2171 12.385 15.0276C12.3065 14.838 12.1914 14.6657 12.0463 14.5207C11.9012 14.3756 11.729 14.2605 11.5394 14.1819C11.3499 14.1034 11.1467 14.063 10.9415 14.063C10.7364 14.063 10.5332 14.1034 10.3436 14.1819C10.1541 14.2605 9.98185 14.3756 9.83677 14.5207C9.69169 14.6657 9.5766 14.838 9.49808 15.0276C9.41957 15.2171 9.37916 15.4203 9.37916 15.6255Z" fill="#FF5555"/>
<path id="circle3025" d="M3.91041 15.6255C3.91041 16.0399 4.07501 16.4373 4.36802 16.7304C4.66102 17.0234 5.05841 17.188 5.47278 17.188C5.88715 17.188 6.28455 17.0234 6.57755 16.7304C6.87055 16.4373 7.03516 16.0399 7.03516 15.6255C7.03516 15.4203 6.99474 15.2171 6.91623 15.0276C6.83771 14.838 6.72263 14.6657 6.57755 14.5207C6.43247 14.3756 6.26023 14.2605 6.07068 14.1819C5.88112 14.1034 5.67796 14.063 5.47278 14.063C5.26761 14.063 5.06444 14.1034 4.87489 14.1819C4.68533 14.2605 4.5131 14.3756 4.36802 14.5207C4.22294 14.6657 4.10785 14.838 4.02933 15.0276C3.95082 15.2171 3.91041 15.4203 3.91041 15.6255Z" fill="#FF5555"/>
</g>
<path id="circle3031" d="M35.1581 34.3811C35.1581 34.5883 35.0758 34.787 34.9293 34.9335C34.7828 35.0801 34.5841 35.1624 34.3769 35.1624C34.1697 35.1624 33.971 35.0801 33.8245 34.9335C33.678 34.787 33.5957 34.5883 33.5957 34.3811C33.5957 34.2785 33.6159 34.1769 33.6552 34.0821C33.6944 33.9874 33.752 33.9012 33.8245 33.8287C33.897 33.7561 33.9832 33.6986 34.0779 33.6593C34.1727 33.6201 34.2743 33.5999 34.3769 33.5999C34.4795 33.5999 34.5811 33.6201 34.6758 33.6593C34.7706 33.6986 34.8567 33.7561 34.9293 33.8287C35.0018 33.9012 35.0594 33.9874 35.0986 34.0821C35.1379 34.1769 35.1581 34.2785 35.1581 34.3811Z" fill="#96D0FF"/>
<path id="path3161" d="M25.003 3.91828C24.5716 3.91665 24.2205 4.26502 24.2188 4.69648V31.2575C24.2205 31.6889 24.5716 32.0373 25.003 32.0357H42.1985C42.6276 32.034 42.9749 31.6865 42.9767 31.2575V4.6904C42.9749 4.2613 42.6276 3.91391 42.1985 3.91228L25.003 3.91828Z" fill="#96D0FF"/>
<path id="path3033" d="M17.8972 9.37766C16.8554 9.42756 16.9304 10.9905 17.9722 10.9405H32.8171V15.6292C32.8171 16.6711 34.3799 16.6711 34.3799 15.6292V10.1562C34.3783 9.7246 34.0272 9.376 33.5956 9.37766H17.9722C17.9471 9.37644 17.9222 9.37644 17.8972 9.37766Z" fill="#0E4B7F"/>
<path id="path3171" d="M25.003 3.91828C24.5716 3.91665 24.2205 4.26502 24.2188 4.69648V5.48079L40.6359 5.47488C41.0649 5.47662 41.4123 5.82402 41.414 6.25308V32.0359H42.1983C42.6273 32.0342 42.9747 31.6867 42.9764 31.2577V4.6906C42.9747 4.26151 42.6273 3.91412 42.1983 3.91239L25.003 3.91828Z" fill="#7CC3FF"/>
<path id="path3037" d="M18.9833 7.26118L16.6362 9.60263C16.3296 9.90802 16.3296 10.4045 16.6362 10.7099L18.9833 13.0514C19.7151 13.909 20.9423 12.6817 20.0847 11.9498L18.297 10.1563L20.0847 8.36271C20.5888 7.8665 20.2267 7.00926 19.5196 7.0247C19.3169 7.03091 19.1246 7.11573 18.9833 7.26118Z" fill="#0E4B7F"/>
<path id="path3039" d="M8.58537 26.5606C8.37913 26.5568 8.18275 26.4717 8.03906 26.3236C7.89538 26.1756 7.81606 25.9768 7.81841 25.7705V21.8662C7.81841 21.6589 7.90073 21.4601 8.04727 21.3136C8.19381 21.1671 8.39256 21.0847 8.59979 21.0847C8.80703 21.0847 9.00577 21.1671 9.15231 21.3136C9.29885 21.4601 9.38117 21.6589 9.38117 21.8662V25.7705C9.38236 25.8751 9.36255 25.9788 9.32291 26.0756C9.28326 26.1724 9.2246 26.2602 9.15038 26.3339C9.07617 26.4076 8.98792 26.4656 8.89087 26.5046C8.79381 26.5435 8.68993 26.5626 8.58537 26.5606Z" fill="#0E4B7F"/>
<path id="path3041" d="M5.70283 24.77L8.04409 27.1173C8.34946 27.4239 8.84592 27.4239 9.15128 27.1173L11.4925 24.77C12.3501 24.0382 11.1229 22.8109 10.3911 23.6685L8.59769 25.4563L6.81003 23.6685C6.64419 23.4957 6.40827 23.4086 6.16993 23.432C5.50852 23.4978 5.22603 24.3069 5.70283 24.77Z" fill="#0E4B7F"/>
<path id="rect3043" d="M3.08301 30.4672C2.25992 30.4672 1.56641 31.1526 1.56641 31.9794V41.4597C1.56641 42.2865 2.25991 42.9703 3.08301 42.9703H14.1097C14.9328 42.9703 15.6263 42.2865 15.6263 41.4597V31.9794C15.6263 31.1526 14.9327 30.4672 14.1097 30.4672H3.08301Z" fill="#FF9955"/>
<path id="path3047" d="M6.25586 35.1681C6.25587 35.7488 6.86699 36.1266 7.38645 35.8669L8.59637 35.255L9.80782 35.8669C10.3289 36.1331 10.9468 35.7532 10.9445 35.1681V30.4672H6.25586V35.1681Z" fill="#FF5555"/>
<path id="rect3019" d="M43.775 26.5533L41.0149 29.3137C39.9534 30.3753 39.9534 32.1186 41.0149 33.1802C42.0764 34.2418 43.8227 34.2463 44.8842 33.185L47.6443 30.4231C48.7058 29.3615 48.7013 27.6151 47.6396 26.5535C47.1088 26.0227 46.409 25.757 45.708 25.7569C45.0071 25.7568 44.3057 26.0225 43.775 26.5533Z" fill="#FFC6A0"/>
<path id="path3109" d="M48.3118 27.7115C48.1874 28.1321 47.973 28.5309 47.6435 28.8605L44.8834 31.6223C43.8219 32.684 42.0756 32.6793 41.0141 31.6176C40.6836 31.287 40.469 30.8871 40.3443 30.4655C40.0685 31.3979 40.2831 32.449 41.0141 33.1801C42.0756 34.2417 43.8219 34.2462 44.8834 33.1848L47.6435 30.423C48.3731 29.6933 48.5865 28.6435 48.3118 27.7115Z" fill="#FFAF7A"/>
<path id="path3116" d="M43.775 21.0312L41.0149 23.7915C39.9534 24.8531 39.9534 26.5965 41.0149 27.6581C42.0764 28.7197 43.8227 28.7242 44.8842 27.6627L47.6443 24.9008C48.7058 23.8392 48.7013 22.0928 47.6396 21.0312C47.1088 20.5004 46.409 20.2347 45.708 20.2347C45.0071 20.2347 44.3057 20.5004 43.775 21.0312Z" fill="#FFC6A0"/>
<path id="path3119" d="M48.3118 22.1893C48.1874 22.6099 47.973 23.0087 47.6435 23.3383L44.8834 26.1002C43.8219 27.1618 42.0756 27.1572 41.0141 26.0955C40.6836 25.765 40.469 25.3651 40.3443 24.9435C40.0685 25.8759 40.2831 26.927 41.0141 27.658C42.0756 28.7196 43.8219 28.7242 44.8834 27.6626L47.6435 24.9008C48.3731 24.1711 48.5865 23.1213 48.3118 22.1893Z" fill="#FFAF7A"/>
<path id="path3123" d="M43.775 15.5106L41.0149 18.2709C39.9534 19.3325 39.9534 21.0758 41.0149 22.1375C42.0764 23.1991 43.8227 23.2036 44.8842 22.1421L47.6443 19.3802C48.7058 18.3186 48.7013 16.5722 47.6396 15.5106C47.1088 14.9798 46.409 14.7141 45.708 14.7141C45.0071 14.7141 44.3057 14.9798 43.775 15.5106Z" fill="#FFC6A0"/>
<path id="path3125" d="M48.3118 16.6687C48.1874 17.0893 47.973 17.4881 47.6435 17.8177L44.8834 20.5795C43.8219 21.6412 42.0756 21.6366 41.0141 20.5749C40.6836 20.2444 40.469 19.8445 40.3443 19.4229C40.0685 20.3553 40.2831 21.4064 41.0141 22.1374C42.0756 23.199 43.8219 23.2035 44.8834 22.142L47.6435 19.3802C48.3731 18.6505 48.5865 17.6007 48.3118 16.6687Z" fill="#FFAF7A"/>
<path id="path3129" d="M43.775 9.98076L41.0149 12.7411C39.9534 13.8027 39.9534 15.546 41.0149 16.6077C42.0764 17.6693 43.8227 17.6738 44.8842 16.6123L47.6443 13.8504C48.7058 12.7888 48.7013 11.0424 47.6396 9.98079C47.1088 9.44999 46.409 9.18428 45.708 9.18427C45.0071 9.18425 44.3057 9.44996 43.775 9.98076Z" fill="#FFC6A0"/>
<path id="path3131" d="M48.3118 11.1389C48.1874 11.5595 47.973 11.9583 47.6435 12.2879L44.8834 15.0497C43.8219 16.1114 42.0756 16.1068 41.0141 15.0451C40.6836 14.7146 40.469 14.3147 40.3443 13.8931C40.0685 14.8255 40.2831 15.8766 41.0141 16.6076C42.0756 17.6692 43.8219 17.6737 44.8834 16.6122L47.6435 13.8504C48.3731 13.1207 48.5865 12.0709 48.3118 11.1389Z" fill="#FFAF7A"/>
<path id="circle3174" d="M35.9391 16.4124C35.9391 17.034 35.6922 17.6301 35.2527 18.0696C34.8132 18.5092 34.2171 18.7561 33.5955 18.7561C32.974 18.7561 32.3779 18.5092 31.9384 18.0696C31.4989 17.6301 31.252 17.034 31.252 16.4124C31.252 15.7908 31.4989 15.1946 31.9384 14.7551C32.3779 14.3155 32.974 14.0686 33.5955 14.0686C34.2171 14.0686 34.8132 14.3155 35.2527 14.7551C35.6922 15.1946 35.9391 15.7908 35.9391 16.4124Z" fill="#0E4B7F"/>
<path id="circle3182" d="M32.3795 14.4104C32.0355 14.6192 31.7511 14.9131 31.5536 15.2637C31.3561 15.6144 31.2522 16.0099 31.252 16.4124C31.252 17.034 31.4989 17.6301 31.9384 18.0696C32.3779 18.5092 32.974 18.7561 33.5955 18.7561C33.9971 18.7556 34.3918 18.652 34.7418 18.455C35.0918 18.2581 35.3854 17.9745 35.5943 17.6315C35.2275 17.8554 34.8064 17.9742 34.3767 17.9749C33.7552 17.9749 33.1591 17.7279 32.7196 17.2884C32.2801 16.8489 32.0331 16.2527 32.0331 15.6311C32.0342 15.2001 32.154 14.7777 32.3795 14.4104Z" fill="#0D3F6C"/>
<path id="path3013" d="M28.5793 19.6319C28.3722 19.6496 28.1679 19.6862 27.9675 19.7417C27.166 19.9641 26.4379 20.4861 25.9657 21.2294L18.9778 32.2325L18.752 32.3622V33.8652C18.752 36.1339 19.3391 37.8393 20.2914 39.1355C21.167 40.3274 22.3173 41.1531 23.5093 41.8821C27.8725 40.2245 29.7847 36.3561 29.8076 36.3096C30.6742 34.7903 30.2606 32.9824 29.8182 31.5168C29.5963 30.7814 29.349 30.1187 29.1896 29.6308C29.1099 29.3869 29.0547 29.1841 29.034 29.0724L31.6293 24.5512C32.5268 22.9863 31.9979 20.9641 30.43 20.0529C29.989 19.7966 29.5178 19.6599 29.0477 19.6288C28.891 19.6171 28.7347 19.6201 28.5793 19.6319Z" fill="#FFC6A0"/>
<path id="path3187" d="M30.0675 22.9889L27.4722 27.5101C27.4928 27.6217 27.5481 27.8246 27.6278 28.0685C27.7872 28.5564 28.0345 29.2191 28.2564 29.9545C28.6987 31.4201 29.1123 33.228 28.2458 34.7473C28.2227 34.7937 26.3106 38.6622 21.9474 40.3198C21.4026 39.9866 20.8704 39.6282 20.3652 39.2288C21.2315 40.3695 22.35 41.173 23.5098 41.8823C27.873 40.2247 29.7853 36.3563 29.8081 36.3098C30.6747 34.7905 30.2611 32.9826 29.8188 31.517C29.5968 30.7816 29.3495 30.1189 29.1902 29.6311C29.1105 29.3872 29.0553 29.1843 29.0345 29.0726L31.6298 24.5514C32.5274 22.9865 31.9985 20.9643 30.4306 20.0531C30.349 20.0056 30.2654 19.9675 30.1819 19.9279C30.6287 20.8756 30.6235 22.0194 30.0675 22.9889Z" fill="#FFAF7A"/>
<path id="path3235" d="M2.34541 5.46723C1.79942 5.46658 1.42117 6.01193 1.61304 6.52314L3.62704 11.9904C3.74019 12.2994 4.03488 12.5044 4.36398 12.5031H12.507C12.8294 12.5016 13.1179 12.3023 13.2332 12.001L13.6467 10.9405H5.92636C5.59726 10.942 5.30257 10.7368 5.18942 10.4279L3.36156 5.46723H2.34541Z" fill="#FF3C3C"/>
<path id="circle3240" d="M3.91016 15.625C3.91015 16.488 4.60965 17.1875 5.47253 17.1875C6.08373 17.1874 6.63875 16.8309 6.89301 16.275C6.69198 16.3654 6.47412 16.4122 6.25372 16.4123C5.39084 16.4123 4.69134 15.7128 4.69134 14.8498C4.69191 14.6254 4.74082 14.4037 4.83476 14.1998C4.27269 14.4512 3.91063 15.0092 3.91016 15.625Z" fill="#FF3C3C"/>
<path id="path3244" d="M9.37891 15.625C9.3789 16.488 10.0784 17.1875 10.9413 17.1875C11.5525 17.1874 12.1075 16.8309 12.3618 16.275C12.1607 16.3654 11.9429 16.4122 11.7225 16.4123C10.8596 16.4123 10.1601 15.7128 10.1601 14.8498C10.1607 14.6254 10.2096 14.4037 10.3035 14.1998C9.74144 14.4512 9.37938 15.0092 9.37891 15.625Z" fill="#FF3C3C"/>
<path id="path3267" d="M3.08301 30.4672C2.25992 30.4672 1.56641 31.1526 1.56641 31.9794V41.4596C1.56641 42.2864 2.25991 42.9703 3.08301 42.9703H14.1097C14.9328 42.9703 15.6263 42.2864 15.6263 41.4596V41.4077H4.64538C3.82229 41.4077 3.12878 40.7238 3.12878 39.8971V30.4671L3.08301 30.4672Z" fill="#FF8A3C"/>
<path id="path3509" d="M6.25586 35.1684C6.25585 35.7492 6.86707 36.127 7.38654 35.8672L8.59656 35.2553L9.80811 35.8672C10.3291 36.1335 10.9472 35.7536 10.9449 35.1684V34.0896L10.1591 33.6929L8.94904 34.3048C8.42956 34.5646 7.81834 34.1868 7.81836 33.6059V30.4672L6.25586 30.4734V35.1684Z" fill="#FF3C3C"/>
</g>
</g>
</svg>
