<svg width="46" height="46" viewBox="0 0 46 46" fill="none" xmlns="http://www.w3.org/2000/svg">
<path d="M37.8832 6.25815L38.3043 6.67934C38.5854 6.96037 38.5854 7.41534 38.3043 7.69565L35.9375 10.0625L34.5 8.625L36.8668 6.25815C37.1472 5.97784 37.6028 5.97784 37.8832 6.25815Z" fill="#BE2814"/>
<path d="M25.3663 6.25815L24.9451 6.67934C24.6641 6.96037 24.6641 7.41534 24.9451 7.69565L27.312 10.0625L28.7495 8.625L26.3826 6.25815C26.1023 5.97784 25.6466 5.97784 25.3663 6.25815Z" fill="#BE2814"/>
<path d="M30.1875 4.3125H33.0625V7.1875H30.1875V4.3125Z" fill="#FAB400"/>
<path d="M33.7812 4.3125H29.4688C29.072 4.3125 28.75 3.9905 28.75 3.59375C28.75 3.197 29.072 2.875 29.4688 2.875H33.7812C34.178 2.875 34.5 3.197 34.5 3.59375C34.5 3.9905 34.178 4.3125 33.7812 4.3125Z" fill="#FA6450"/>
<path d="M30.1875 3.59375C30.1875 3.197 30.5095 2.875 30.9062 2.875H29.4688C29.072 2.875 28.75 3.197 28.75 3.59375C28.75 3.9905 29.072 4.3125 29.4688 4.3125H30.9062C30.5095 4.3125 30.1875 3.9905 30.1875 3.59375Z" fill="#DC4632"/>
<path d="M33.0625 15.8125V21.5625H36.3889C38.7147 20.0179 40.25 17.3765 40.25 14.375C40.25 9.61184 36.3882 5.75 31.625 5.75C26.8618 5.75 23 9.61184 23 14.375C23 14.8659 23.0503 15.3439 23.1294 15.8125H33.0625Z" fill="#FA6450"/>
<path d="M33.0625 15.8125V19.9367C35.5415 19.2977 37.375 17.0538 37.375 14.375C37.375 11.1996 34.8004 8.625 31.625 8.625C28.4496 8.625 25.875 11.1996 25.875 14.375C25.875 14.8724 25.9447 15.3525 26.0633 15.8125H33.0625Z" fill="#F0F0F0"/>
<path d="M24.5647 15.8125C24.4857 15.3446 24.4375 14.8659 24.4375 14.375C24.4375 9.85406 27.9177 6.1525 32.3438 5.78594C32.1058 5.76653 31.8679 5.75 31.625 5.75C26.8618 5.75 23 9.61184 23 14.375C23 14.8659 23.0503 15.3439 23.1294 15.8125H24.5647Z" fill="#DC4632"/>
<path d="M31.2656 8.625H31.9844V10.0625H31.2656V8.625Z" fill="#505050"/>
<path d="M35.9375 14.0156H37.375V14.7344H35.9375V14.0156Z" fill="#505050"/>
<path d="M25.875 14.0156H27.3125V14.7344H25.875V14.0156Z" fill="#505050"/>
<path d="M31.9844 14.7344H30.1875V14.0156H31.2656V11.5H31.9844V14.7344Z" fill="#505050"/>
<path d="M8.625 17.25H31.625V34.5H8.625V17.25Z" fill="#FAB400"/>
<path d="M41.6875 40.25H10.0625C9.26828 40.25 8.625 39.6067 8.625 38.8125V37.375H43.125V38.8125C43.125 39.6067 42.4817 40.25 41.6875 40.25Z" fill="#288CB4"/>
<path d="M38.8125 25.875H31.625V34.5H8.625V37.375H43.125V31.625L38.8125 25.875Z" fill="#64C8F0"/>
<path d="M8.625 17.25H11.5V34.5H8.625V17.25Z" fill="#DC9600"/>
<path d="M8.625 34.5H11.5V37.375H8.625V34.5Z" fill="#46AAD2"/>
<path d="M43.125 31.625H34.5V25.875H38.8125L43.125 31.625Z" fill="#F0F0F0"/>
<path d="M39.5312 35.9375H43.125V33.0625H39.5312C39.1345 33.0625 38.8125 33.3845 38.8125 33.7812V35.2188C38.8125 35.6155 39.1345 35.9375 39.5312 35.9375Z" fill="#FAB400"/>
<path d="M31.625 25.875H38.8125C39.6067 25.875 40.25 25.231 40.25 24.4375C40.25 23.6433 39.6067 23 38.8125 23H31.625V25.875Z" fill="#505050"/>
<path d="M34.5 25.875H35.9375V31.625H34.5V25.875Z" fill="#D2D2D2"/>
<path d="M15.0938 43.125C13.1093 43.125 11.5 41.5157 11.5 39.5312C11.5 37.5468 13.1093 35.9375 15.0938 35.9375C17.0782 35.9375 18.6875 37.5468 18.6875 39.5312C18.6875 41.5157 17.0782 43.125 15.0938 43.125Z" fill="#505050"/>
<path d="M12.9375 39.5312C12.9375 37.7926 14.1723 36.3429 15.8125 36.0101C15.5803 35.9627 15.3403 35.9375 15.0938 35.9375C13.1093 35.9375 11.5 37.5468 11.5 39.5312C11.5 41.5157 13.1093 43.125 15.0938 43.125C15.3403 43.125 15.5803 43.0998 15.8125 43.0524C14.1723 42.7196 12.9375 41.2699 12.9375 39.5312Z" fill="#3C3C3C"/>
<path d="M15.0938 40.9688C14.2995 40.9688 13.6562 40.3247 13.6562 39.5312C13.6562 38.737 14.2995 38.0938 15.0938 38.0938C15.888 38.0938 16.5312 38.737 16.5312 39.5312C16.5312 40.3247 15.888 40.9688 15.0938 40.9688Z" fill="#F0F0F0"/>
<path d="M36.6562 43.125C34.6718 43.125 33.0625 41.5157 33.0625 39.5312C33.0625 37.5468 34.6718 35.9375 36.6562 35.9375C38.6407 35.9375 40.25 37.5468 40.25 39.5312C40.25 41.5157 38.6407 43.125 36.6562 43.125Z" fill="#505050"/>
<path d="M34.5 39.5312C34.5 37.7926 35.7348 36.3429 37.375 36.0101C37.1428 35.9627 36.9028 35.9375 36.6562 35.9375C34.6718 35.9375 33.0625 37.5468 33.0625 39.5312C33.0625 41.5157 34.6718 43.125 36.6562 43.125C36.9028 43.125 37.1428 43.0998 37.375 43.0524C35.7348 42.7196 34.5 41.2699 34.5 39.5312Z" fill="#3C3C3C"/>
<path d="M36.6562 40.9688C35.862 40.9688 35.2188 40.3247 35.2188 39.5312C35.2188 38.737 35.862 38.0938 36.6562 38.0938C37.4505 38.0938 38.0938 38.737 38.0938 39.5312C38.0938 40.3247 37.4505 40.9688 36.6562 40.9688Z" fill="#F0F0F0"/>
<path d="M4.3125 23H7.1875V24.4375H4.3125V23Z" fill="#FAB400"/>
<path d="M2.875 25.875H7.1875V27.3125H2.875V25.875Z" fill="#FAB400"/>
<path d="M4.3125 28.75H7.1875V30.1875H4.3125V28.75Z" fill="#FAB400"/>
<path d="M18.6875 17.25V21.5625L20.125 20.125L21.5625 21.5625V17.25H18.6875Z" fill="#FA6450"/>
<path d="M24.4375 30.1875H28.75V31.625H24.4375V30.1875Z" fill="#F0F0F0"/>
<path d="M24.4375 27.3125H28.75V28.75H24.4375V27.3125Z" fill="#F0F0F0"/>
</svg>
