<svg width="52" height="52" viewBox="0 0 52 52" fill="none" xmlns="http://www.w3.org/2000/svg">
<g id="fi_13911032">
<g id="Group">
<g id="Group_2">
<path id="Vector" fill-rule="evenodd" clip-rule="evenodd" d="M28.0597 23.4027L36.2155 25.773C37.4521 26.1328 38.2717 27.2237 38.2717 28.5116V34.0832H17.8477V28.5116C17.8477 27.2237 18.6673 26.1328 19.9066 25.773L28.0597 23.4027Z" fill="#E2F0FA"/>
</g>
<g id="Group_3">
<path id="Vector_2" fill-rule="evenodd" clip-rule="evenodd" d="M28.0597 23.4027L29.4961 23.8197L21.0718 26.2699C19.7524 26.6525 18.8757 27.8177 18.8757 29.1912V34.0831H17.8477V28.5116C17.8477 27.2237 18.6673 26.1328 19.9066 25.773L28.0597 23.4027Z" fill="#D2EAFA"/>
</g>
<g id="Group_4">
<path id="Vector_3" fill-rule="evenodd" clip-rule="evenodd" d="M31.3379 20.4671V24.4622L28.0596 26.4583L24.7812 24.4622V20.4671H31.3379Z" fill="#F7A081"/>
</g>
<g id="Group_5">
<path id="Vector_4" fill-rule="evenodd" clip-rule="evenodd" d="M34.2858 13.0479V17.6399C34.2858 20.2272 32.2297 22.3432 29.7139 22.3432H26.407C23.8939 22.3432 21.8379 20.2272 21.8379 17.6399V13.0479H34.2858Z" fill="#FFBFA8"/>
</g>
<g id="Group_6">
<path id="Vector_5" fill-rule="evenodd" clip-rule="evenodd" d="M21.3086 10.0237H34.8133V13.5648H21.3086V10.0237Z" fill="#C5DCF2"/>
</g>
<g id="Group_7">
<path id="Vector_6" fill-rule="evenodd" clip-rule="evenodd" d="M21.3086 10.0237H22.3338V13.5648H21.3086V10.0237Z" fill="#B5D1EB"/>
</g>
<g id="Group_8">
<path id="Vector_7" fill-rule="evenodd" clip-rule="evenodd" d="M22.8077 3.34709C23.4303 3.34709 24.0157 3.49558 24.5326 3.76116C24.958 2.12489 26.4459 0.914062 28.2164 0.914062C29.9384 0.914062 31.3948 2.06202 31.8631 3.63553C32.3086 3.44988 32.7999 3.34709 33.3139 3.34709C35.4128 3.34709 37.1177 5.04908 37.1177 7.15091C37.1177 9.25275 35.4129 10.2808 33.3139 10.2808C29.4443 10.2808 26.6429 10.2808 22.8077 10.2808C20.7059 10.2808 19.0039 9.25275 19.0039 7.15091C19.0039 5.04908 20.7059 3.34709 22.8077 3.34709Z" fill="#E2F0FA"/>
</g>
<g id="Group_9">
<path id="Vector_8" fill-rule="evenodd" clip-rule="evenodd" d="M22.8077 3.34711C22.9819 3.34711 23.1532 3.35848 23.3217 3.38133C21.4655 3.6326 20.0319 5.22327 20.0319 7.15083C20.0319 9.25266 21.7339 10.2807 23.8357 10.2807H22.8077C20.7059 10.2807 19.0039 9.25266 19.0039 7.15083C19.0039 5.04909 20.7059 3.34711 22.8077 3.34711Z" fill="#D2EAFA"/>
</g>
<g id="Group_10">
<path id="Vector_9" fill-rule="evenodd" clip-rule="evenodd" d="M42.5352 40.5056H45.0767V51.0859H42.5352V40.5056Z" fill="#908E96"/>
</g>
<g id="Group_11">
<path id="Vector_10" fill-rule="evenodd" clip-rule="evenodd" d="M6.92383 40.5056H9.46543V51.0859H6.92383V40.5056Z" fill="#908E96"/>
</g>
<g id="Group_12">
<path id="Vector_11" fill-rule="evenodd" clip-rule="evenodd" d="M48.2273 36.6247V47.1308C46.1169 45.5516 43.4925 44.6149 40.6511 44.6149C37.924 44.6149 35.3938 45.4802 33.3262 46.948C31.2587 45.4802 28.7314 44.6149 26.0013 44.6149C23.2713 44.6149 20.7439 45.4802 18.6764 46.948C16.6089 45.4802 14.0815 44.6149 11.3515 44.6149C8.51013 44.6149 5.8886 45.5516 3.77539 47.1308V36.6247H48.2273Z" fill="#FF656F"/>
</g>
<g id="Group_13">
<path id="Vector_12" fill-rule="evenodd" clip-rule="evenodd" d="M3.77539 34.0831H48.2273V36.6247H3.77539V34.0831Z" fill="#4D5080"/>
</g>
<g id="Group_14">
<path id="Vector_13" fill-rule="evenodd" clip-rule="evenodd" d="M4.7312 28.2718H21.3085C21.8939 28.2718 22.3737 27.792 22.3737 27.2037C22.3737 26.6183 21.8939 26.1385 21.3085 26.1385H4.7312C4.1458 26.1385 3.66602 26.6183 3.66602 27.2037C3.66602 27.792 4.1458 28.2718 4.7312 28.2718Z" fill="#FF656F"/>
</g>
<g id="Group_15">
<path id="Vector_14" fill-rule="evenodd" clip-rule="evenodd" d="M13.021 17.8655C17.5873 17.8655 21.2912 21.5694 21.2912 26.1385H4.74805C4.74805 21.5693 8.45193 17.8655 13.021 17.8655Z" fill="#4D5080"/>
</g>
<g id="Group_16">
<path id="Vector_15" fill-rule="evenodd" clip-rule="evenodd" d="M13.0205 17.8656C13.7659 17.8656 14.3742 17.2573 14.3742 16.5091C14.3742 15.7637 13.7659 15.1526 13.0205 15.1526C12.2723 15.1526 11.6641 15.7637 11.6641 16.5091C11.6641 17.2573 12.2724 17.8656 13.0205 17.8656Z" fill="#FF656F"/>
</g>
<g id="Group_17">
<path id="Vector_16" fill-rule="evenodd" clip-rule="evenodd" d="M6.92383 30.3192H9.56821V34.083H6.92383V30.3192Z" fill="#908E96"/>
</g>
<g id="Group_18">
<path id="Vector_17" fill-rule="evenodd" clip-rule="evenodd" d="M16.4707 30.3192H19.1151V34.083H16.4707V30.3192Z" fill="#908E96"/>
</g>
<g id="Group_19">
<path id="Vector_18" fill-rule="evenodd" clip-rule="evenodd" d="M4.73047 28.2718H21.3078V31.2902H4.73047V28.2718Z" fill="#BABABE"/>
</g>
<g id="Group_20">
<path id="Vector_19" fill-rule="evenodd" clip-rule="evenodd" d="M35.1994 23.3656C36.5644 23.3656 37.6811 24.4793 37.6811 25.8443V27.809C37.6811 29.174 36.5645 30.2906 35.1994 30.2906C33.8373 30.2906 32.7207 29.174 32.7207 27.809V25.8443C32.7207 24.4793 33.8374 23.3656 35.1994 23.3656Z" fill="#FFAA81"/>
</g>
<g id="Group_21">
<path id="Vector_20" fill-rule="evenodd" clip-rule="evenodd" d="M38.9816 23.3656C40.3437 23.3656 41.4603 24.4793 41.4603 25.8443V27.809C41.4603 29.174 40.3437 30.2906 38.9816 30.2906C37.6166 30.2906 36.5 29.174 36.5 27.809V25.8443C36.5 24.4793 37.6166 23.3656 38.9816 23.3656Z" fill="#FFBFA8"/>
</g>
<g id="Group_22">
<path id="Vector_21" fill-rule="evenodd" clip-rule="evenodd" d="M42.7629 23.3656C44.1251 23.3656 45.2417 24.4793 45.2417 25.8443V27.809C45.2417 29.174 44.1251 30.2906 42.7629 30.2906C41.3979 30.2906 40.2812 29.174 40.2812 27.809V25.8443C40.2814 24.4793 41.3979 23.3656 42.7629 23.3656Z" fill="#FFAA81"/>
</g>
<g id="Group_23">
<path id="Vector_22" fill-rule="evenodd" clip-rule="evenodd" d="M32.8848 30.3192H35.5292V34.083H32.8848V30.3192Z" fill="#908E96"/>
</g>
<g id="Group_24">
<path id="Vector_23" fill-rule="evenodd" clip-rule="evenodd" d="M42.4316 30.3192H45.076V34.083H42.4316V30.3192Z" fill="#908E96"/>
</g>
<g id="Group_25">
<path id="Vector_24" fill-rule="evenodd" clip-rule="evenodd" d="M30.6934 28.2718H47.2707V31.2902H30.6934V28.2718Z" fill="#BABABE"/>
</g>
<g id="Group_26">
<path id="Vector_25" fill-rule="evenodd" clip-rule="evenodd" d="M48.2273 36.6247V47.1308C46.1169 45.5516 43.4925 44.6149 40.6511 44.6149C37.924 44.6149 35.3938 45.4802 33.3262 46.948C31.2587 45.4802 28.7314 44.6149 26.0013 44.6149C23.2713 44.6149 20.7439 45.4802 18.6764 46.948C16.6089 45.4802 14.0815 44.6149 11.3515 44.6149C8.51013 44.6149 5.8886 45.5516 3.77539 47.1308V36.6247H5.35459V43.9467C7.13945 42.9843 9.18126 42.4389 11.3515 42.4389C14.0815 42.4389 16.6089 43.3042 18.6764 44.772C20.744 43.3041 23.2713 42.4389 26.0013 42.4389C28.7314 42.4389 31.2587 43.3042 33.3262 44.772C35.3937 43.3042 37.9239 42.4389 40.6511 42.4389C43.4925 42.4389 46.117 43.3756 48.2273 44.9548V36.6247Z" fill="#FF4756"/>
</g>
<g id="Group_27">
<path id="Vector_26" fill-rule="evenodd" clip-rule="evenodd" d="M3.77539 34.0831H5.35459V36.6247H3.77539V34.0831Z" fill="#434675"/>
</g>
<g id="Group_28">
<path id="Vector_27" fill-rule="evenodd" clip-rule="evenodd" d="M4.73047 28.2718H21.3078V29.2112H5.9413V31.2902H4.73047V28.2718Z" fill="#AFAFB5"/>
</g>
<g id="Group_29">
<path id="Vector_28" fill-rule="evenodd" clip-rule="evenodd" d="M30.6934 28.2718H47.2707V29.2112H31.9042V31.2902H30.6934V28.2718Z" fill="#AFAFB5"/>
</g>
<g id="Group_30">
<path id="Vector_29" fill-rule="evenodd" clip-rule="evenodd" d="M13.021 17.8655C13.2551 17.8655 13.4893 17.8769 13.7235 17.8969C9.48279 18.2539 6.15306 21.8064 6.15306 26.1385H4.74805C4.74805 21.5693 8.45193 17.8655 13.021 17.8655Z" fill="#434675"/>
</g>
<g id="Group_31">
<path id="Vector_30" fill-rule="evenodd" clip-rule="evenodd" d="M4.7312 28.2718H6.33325C5.74784 28.2718 5.26806 27.792 5.26806 27.2037C5.26806 26.6183 5.74784 26.1385 6.33325 26.1385H4.7312C4.1458 26.1385 3.66602 26.6183 3.66602 27.2037C3.66602 27.792 4.1458 28.2718 4.7312 28.2718Z" fill="#FF4756"/>
</g>
</g>
<path id="Vector_31" d="M26.1602 16.6808C26.1602 17.0728 25.8425 17.3905 25.4505 17.3905C25.0585 17.3905 24.7408 17.0728 24.7408 16.6808V16.1033C24.7408 15.7114 25.0585 15.3936 25.4505 15.3936C25.8425 15.3936 26.1602 15.7113 26.1602 16.1033V16.6808ZM30.7372 17.3905C31.1292 17.3905 31.4469 17.0728 31.4469 16.6808V16.1033C31.4469 15.7114 31.1293 15.3936 30.7372 15.3936C30.3452 15.3936 30.0275 15.7113 30.0275 16.1033V16.6808C30.0275 17.0728 30.3453 17.3905 30.7372 17.3905ZM29.889 19.8548C30.1996 19.6155 30.2571 19.17 30.018 18.8594C29.7788 18.549 29.3329 18.4912 29.0226 18.7305C28.4349 19.1834 27.8132 19.1834 27.2255 18.7305C26.9149 18.4911 26.4695 18.549 26.2302 18.8594C25.9909 19.1699 26.0486 19.6155 26.3592 19.8548C26.9034 20.2741 27.5137 20.4839 28.124 20.4839C28.7344 20.4838 29.3446 20.2741 29.889 19.8548ZM28.5338 29.4741C28.5155 29.4306 28.4942 29.3901 28.4679 29.3515C28.4425 29.3119 28.4132 29.2764 28.3798 29.243C28.2155 29.0788 27.9703 29.0028 27.7402 29.0494C27.6946 29.0586 27.6499 29.0718 27.6074 29.09C27.5638 29.1073 27.5233 29.1295 27.4847 29.1548C27.4452 29.1812 27.4096 29.2106 27.3762 29.243C27.3438 29.2764 27.3145 29.3119 27.2881 29.3515C27.2627 29.39 27.2403 29.4306 27.2232 29.4741C27.2049 29.5167 27.1918 29.5614 27.1826 29.6069C27.1735 29.6525 27.1684 29.6991 27.1684 29.7448C27.1684 29.9323 27.2445 30.1148 27.3762 30.2465C27.4096 30.2799 27.4452 30.3094 27.4847 30.3357C27.5232 30.3611 27.5638 30.3823 27.6074 30.4005C27.6499 30.4178 27.6946 30.432 27.7402 30.4411C27.7857 30.4503 27.8323 30.4552 27.879 30.4552C28.0655 30.4552 28.2479 30.3792 28.3798 30.2464C28.5125 30.1147 28.5876 29.9322 28.5876 29.7447C28.5876 29.6991 28.5835 29.6525 28.5744 29.6068C28.5652 29.5614 28.551 29.5167 28.5338 29.4741ZM28.5338 31.7091C28.5155 31.6666 28.4942 31.625 28.4688 31.5864C28.4425 31.548 28.4132 31.5114 28.3797 31.4791C28.3472 31.4457 28.3108 31.4162 28.2722 31.3909C28.2336 31.3645 28.1931 31.3432 28.1495 31.325C28.1069 31.3078 28.0624 31.2936 28.0167 31.2845C27.9255 31.2662 27.8311 31.2662 27.74 31.2845C27.6944 31.2936 27.6497 31.3078 27.6072 31.325C27.5636 31.3432 27.5231 31.3645 27.4845 31.3909C27.445 31.4163 27.4094 31.4457 27.376 31.4791C27.3436 31.5115 27.3143 31.548 27.2879 31.5864C27.2625 31.6249 27.2401 31.6666 27.223 31.7091C27.2047 31.7517 27.1916 31.7964 27.1824 31.842C27.1733 31.8875 27.1682 31.9341 27.1682 31.9807C27.1682 32.0263 27.1733 32.0729 27.1824 32.1195C27.1916 32.1642 27.2047 32.2087 27.223 32.2524C27.2401 32.2949 27.2626 32.3355 27.2879 32.3741C27.3142 32.4136 27.3436 32.449 27.376 32.4824C27.4094 32.5149 27.445 32.5443 27.4845 32.5706C27.523 32.596 27.5636 32.6182 27.6072 32.6354C27.6497 32.6537 27.6944 32.6669 27.74 32.676C27.7855 32.6852 27.8321 32.6901 27.8777 32.6901C27.9244 32.6901 27.971 32.685 28.0167 32.676C28.0623 32.6669 28.1069 32.6538 28.1495 32.6354C28.1931 32.6181 28.2336 32.5959 28.2722 32.5706C28.3107 32.5443 28.3472 32.5148 28.3797 32.4824C28.4132 32.449 28.4425 32.4136 28.4688 32.3741C28.4942 32.3355 28.5154 32.2949 28.5338 32.2524C28.551 32.2087 28.5652 32.1642 28.5742 32.1195C28.5834 32.0729 28.5875 32.0263 28.5875 31.9807C28.5875 31.9341 28.5834 31.8875 28.5742 31.842C28.5652 31.7964 28.551 31.7517 28.5338 31.7091ZM46.9334 15.5085H39.1872C37.9847 15.5085 37.0065 16.4855 37.0065 17.6864C37.0065 18.8889 37.9847 19.8673 39.1872 19.8673H42.3592C42.7791 19.8673 43.1206 20.2087 43.1206 20.6286C43.1206 21.0205 43.4383 21.3383 43.8304 21.3383C44.2223 21.3383 44.5401 21.0206 44.5401 20.6286C44.5401 19.4261 43.5617 18.4478 42.3592 18.4478H39.1872C38.7675 18.4478 38.4259 18.1064 38.4259 17.6864C38.4259 17.2681 38.7674 16.9278 39.1872 16.9278H46.9334C48.1359 16.9278 49.1141 15.9495 49.1141 14.747C49.1141 13.5445 48.1359 12.5662 46.9334 12.5662H44.313C43.8931 12.5662 43.5516 12.2248 43.5516 11.8048C43.5516 11.4129 43.2339 11.0951 42.8419 11.0951C42.4499 11.0951 42.1321 11.4128 42.1321 11.8048C42.1321 13.0073 43.1105 13.9857 44.313 13.9857H46.9334C47.3532 13.9857 47.6947 14.3271 47.6947 14.747C47.6947 15.1599 47.3461 15.5085 46.9334 15.5085ZM49.1256 34.1326V36.6898V47.2602C49.1256 47.5287 48.974 47.7743 48.7339 47.8946C48.6334 47.945 48.5244 47.9699 48.416 47.9699C48.2656 47.9699 48.1161 47.9221 47.9911 47.8286C47.3479 47.3479 46.6669 46.9376 45.9566 46.5989V51.2395C45.9566 51.6314 45.6389 51.9492 45.2468 51.9492H42.6897C42.2977 51.9492 41.98 51.6314 41.98 51.2395V45.4984C41.588 45.4603 41.1924 45.4387 40.7933 45.4387C38.2831 45.4387 35.8768 46.205 33.8346 47.6551C33.5884 47.8297 33.2585 47.8297 33.0123 47.6546C30.9743 46.2049 28.567 45.4387 26.051 45.4387C23.5409 45.4387 21.1345 46.2051 19.0921 47.6551C18.8461 47.8297 18.5161 47.8297 18.2699 47.6546C16.232 46.2049 13.8259 45.4387 11.3117 45.4387C10.9126 45.4387 10.5171 45.4603 10.125 45.4984V51.2395C10.125 51.6314 9.80723 51.9492 9.4153 51.9492H6.85816C6.46623 51.9492 6.14844 51.6314 6.14844 51.2395V46.5989C5.43811 46.9376 4.75713 47.3479 4.11394 47.8286C3.89873 47.9894 3.6113 48.0149 3.37121 47.8946C3.13112 47.7743 2.97948 47.5287 2.97948 47.2602V36.6898V34.1326C2.97948 33.7406 3.29717 33.4229 3.6892 33.4229H6.14854V32.0324H4.65435C4.26242 32.0324 3.94463 31.7147 3.94463 31.3227V28.8441C3.31474 28.5692 2.87305 27.9411 2.87305 27.2111C2.87305 26.4684 3.33038 25.831 3.97795 25.564C4.23561 21.4877 7.20855 18.137 11.1041 17.3052C10.9856 17.0443 10.9179 16.7557 10.9179 16.451C10.9179 15.3071 11.8485 14.3766 12.9924 14.3766C14.1363 14.3766 15.0669 15.3071 15.0669 16.451C15.0669 16.7557 14.9992 17.0443 14.8808 17.3052C18.4202 18.061 21.1982 20.8961 21.8697 24.4656L24.1174 23.8135V22.4698C22.3625 21.5807 21.1523 19.7272 21.1523 17.5888V14.175C20.8467 14.0959 20.6207 13.819 20.6207 13.4887V10.4934C19.1661 9.89676 18.3021 8.66765 18.3021 7.03554C18.3021 4.53395 20.3373 2.49874 22.8388 2.49874C23.2931 2.49874 23.7345 2.56384 24.1587 2.69303C24.888 1.1051 26.4862 0.0507812 28.2806 0.0507812C30.0283 0.0507812 31.6196 1.07778 32.3678 2.6193C32.7085 2.53906 33.0567 2.49874 33.4093 2.49874C35.9108 2.49874 37.946 4.53395 37.946 7.03554C37.946 8.66653 37.0832 9.89523 35.6303 10.4923V13.4887C35.6303 13.8201 35.403 14.0976 35.0959 14.1757V17.5887C35.0959 19.7266 33.8869 21.5796 32.1336 22.469V23.8139L32.7029 23.9796C33.2852 23.1692 34.2358 22.6398 35.3083 22.6398C35.998 22.6398 36.6609 22.8638 37.2078 23.2682C37.7408 22.8736 38.3998 22.6398 39.1125 22.6398C39.802 22.6398 40.465 22.8638 41.0118 23.2682C41.5448 22.8736 42.2037 22.6398 42.9165 22.6398C44.683 22.6398 46.1201 24.0769 46.1201 25.8434V27.5729H47.4503C47.8423 27.5729 48.1601 27.8906 48.1601 28.2826V31.3225C48.1601 31.7144 47.8424 32.0322 47.4503 32.0322H45.9564V33.4227H48.4157C48.8079 33.4229 49.1256 33.7406 49.1256 34.1326ZM44.5371 33.4229V32.0324H43.2959V33.4229H44.5371ZM34.9291 32.0323H33.688V33.4228H34.9291V32.0323ZM41.8765 32.0323H36.3486V33.4228H41.8765V32.0323ZM41.1296 27.573H44.7009V25.8435C44.7009 24.8597 43.9005 24.0593 42.9167 24.0593C41.9313 24.0593 41.1296 24.8598 41.1296 25.8435V27.573ZM37.3255 27.573H39.7102V25.8435C39.7102 25.3047 39.8445 24.7968 40.0808 24.3507C39.7939 24.1635 39.4594 24.0592 39.1126 24.0592C38.1271 24.0592 37.3254 24.8597 37.3254 25.8434V27.573H37.3255ZM33.5214 27.573H35.9059V25.8435C35.9059 25.3047 36.0404 24.7968 36.2765 24.3507C35.9896 24.1635 35.6552 24.0593 35.3083 24.0593C34.323 24.0593 33.5214 24.8598 33.5214 25.8435V27.573ZM31.4843 28.9924V30.6129H32.9783H35.6388H42.5862H45.2467H46.7407V28.9924H31.4843ZM31.6441 25.1497L28.4946 27.0674C28.4885 27.0711 28.4819 27.0737 28.4757 27.0772L26.1633 28.486V33.4229H32.2687V32.0324H30.7746C30.3827 32.0324 30.0649 31.7147 30.0649 31.3227V28.2828C30.0649 27.8908 30.3826 27.5731 30.7746 27.5731H32.102V25.8436C32.102 25.6572 32.119 25.4748 32.1497 25.297L31.6441 25.1497ZM29.6871 24.6771L29.6881 24.6789L30.7143 24.0541V22.9462C30.4136 23.0007 30.1048 23.0307 29.7891 23.0307H26.462C26.1463 23.0307 25.8375 23.0008 25.5369 22.9463V24.0541L28.124 25.6295L29.6871 24.6771ZM22.8388 9.47487H33.4093C34.1406 9.47487 36.5266 9.29896 36.5266 7.03564C36.5266 5.3167 35.1283 3.91828 33.4093 3.91828C33.0007 3.91828 32.5999 3.9973 32.2177 4.15309C32.0322 4.22866 31.8235 4.22236 31.643 4.13583C31.4625 4.0493 31.3268 3.89055 31.2696 3.6987C30.8784 2.38662 29.6494 1.47032 28.2807 1.47032C26.8618 1.47032 25.6212 2.42988 25.264 3.80372C25.2099 4.01202 25.0641 4.18437 24.8678 4.27263C24.6715 4.36089 24.4458 4.3551 24.2542 4.25709C23.8142 4.03223 23.3381 3.91828 22.8389 3.91828C21.12 3.91828 19.7217 5.3167 19.7217 7.03564C19.7216 9.29896 22.1076 9.47487 22.8388 9.47487ZM22.0401 12.779H34.2109V10.8481C33.9539 10.8782 33.6868 10.8942 33.4092 10.8942H22.8388C22.5624 10.8942 22.2962 10.8783 22.0401 10.8485V12.779ZM26.462 21.6112H29.7891C31.9326 21.6112 33.6765 19.8068 33.6765 17.5888V14.1984H22.5716V17.5888C22.5716 19.8068 24.3169 21.6112 26.462 21.6112ZM21.3304 32.0323H19.8364V33.4228H24.7438V28.0873C24.7438 27.8397 24.8729 27.6101 25.0844 27.4812L26.7598 26.4604L24.6066 25.1493L22.3998 25.7896C22.8313 26.115 23.1119 26.6302 23.1119 27.2109C23.1119 27.9409 22.67 28.569 22.0402 28.8439V31.3225C22.0401 31.7146 21.7224 32.0323 21.3304 32.0323ZM15.7564 32.0323H10.2284V33.4228H15.7564V32.0323ZM18.4169 32.0323H17.1758V33.4228H18.4169V32.0323ZM12.3373 16.451C12.3373 16.8121 12.6312 17.1061 12.9923 17.1061C13.3535 17.1061 13.6474 16.8121 13.6474 16.451C13.6474 16.0898 13.3535 15.796 12.9923 15.796C12.6312 15.796 12.3373 16.0897 12.3373 16.451ZM5.4113 25.4297H20.5736C20.2144 21.5629 16.9514 18.5255 12.9923 18.5255C9.03342 18.5255 5.77042 21.5629 5.4113 25.4297ZM4.65435 27.573H21.3304C21.5301 27.573 21.6924 27.4107 21.6924 27.2111C21.6924 27.0148 21.5266 26.8492 21.3304 26.8492H21.3161H4.66888H4.65435C4.45813 26.8492 4.29248 27.0148 4.29248 27.2111C4.29248 27.4107 4.45478 27.573 4.65435 27.573ZM6.85816 30.6129H9.51879H16.4662H19.1266H20.6207V28.9924H5.36407V30.6129H6.85816ZM7.56788 33.4229H8.80907V32.0324H7.56788V33.4229ZM8.70558 45.7224C8.32086 45.807 7.94122 45.9092 7.56788 46.0313V50.5298H8.70558V45.7224ZM44.5371 46.0313C44.1639 45.9092 43.784 45.807 43.3994 45.7223V50.5297H44.5371V46.0313ZM47.7062 34.8423H4.39872V35.98H35.8313C36.2232 35.98 36.541 36.2978 36.541 36.6898C36.541 37.0818 36.2232 37.3995 35.8313 37.3995H4.39872V45.929C5.09645 45.5092 5.82628 45.158 6.58018 44.8745C6.59318 44.869 6.60669 44.8645 6.61999 44.8598C8.10575 44.3063 9.68637 44.0192 11.3116 44.0192C13.9552 44.0192 16.4925 44.7775 18.6816 46.2168C20.8743 44.7774 23.4113 44.0192 26.0509 44.0192C28.6962 44.0192 31.2346 44.7775 33.4239 46.2168C35.6165 44.7774 38.1536 44.0192 40.7932 44.0192C42.4191 44.0192 44.0004 44.3064 45.4865 44.8604C45.4992 44.8649 45.5121 44.8692 45.5245 44.8745C46.2785 45.158 47.0084 45.5092 47.7061 45.9291V37.3996H38.6038C38.2119 37.3996 37.8941 37.0819 37.8941 36.6899C37.8941 36.2979 38.2118 35.9801 38.6038 35.9801H47.7061V34.8423H47.7062Z" fill="black"/>
</g>
</svg>
