<svg width="44" height="44" viewBox="0 0 44 44" fill="none" xmlns="http://www.w3.org/2000/svg">
<path fill-rule="evenodd" clip-rule="evenodd" d="M9.50977 20.5477C9.50977 18.3568 11.2922 16.5743 13.4831 16.5743C15.2158 16.5743 16.7615 17.719 17.277 19.3706L17.3089 19.4728L17.2335 19.5488C15.9794 20.8119 15.2778 22.5027 15.2778 24.2838V28.1442H10.4931C9.95092 28.1442 9.50977 27.7031 9.50977 27.1609V20.5477ZM22.0013 18.5378C18.8329 18.5378 16.256 21.1154 16.256 24.2837V31.3013C16.256 32.1653 16.9589 32.8695 17.8232 32.8695H26.1801C27.0446 32.8695 27.7472 32.1655 27.7472 31.3013V24.2837C27.7472 21.1154 25.1697 18.5378 22.0013 18.5378ZM26.7262 19.3706C27.2413 17.7187 28.7867 16.5743 30.5196 16.5743C32.7107 16.5743 34.4929 18.3565 34.4929 20.5477V27.1608C34.4929 27.7029 34.0524 28.1441 33.5101 28.1441H28.725V24.2837C28.725 22.5028 28.0234 20.812 26.7698 19.5487L26.6944 19.4727L26.7262 19.3706Z" fill="#9BC9FF"/>
<path fill-rule="evenodd" clip-rule="evenodd" d="M27.5681 24.2838C27.5681 21.2135 25.0703 18.7157 22 18.7157C18.9297 18.7157 16.4325 21.2135 16.4325 24.2838V31.3014C16.4325 32.0677 17.0561 32.6918 17.8218 32.6918H26.1788C26.9451 32.6918 27.5681 32.0676 27.5681 31.3014V24.2838ZM17.106 19.4235C15.8666 20.6718 15.0986 22.3893 15.0986 24.2837V27.9663H10.4918C10.0474 27.9663 9.68615 27.6045 9.68615 27.1607V20.5476C9.68615 18.4543 11.3896 16.752 13.4818 16.752C15.147 16.7521 16.6167 17.8561 17.106 19.4235ZM13.4818 15.4189C14.52 15.4189 15.3655 14.5746 15.3655 13.5352C15.3655 12.497 14.52 11.6526 13.4818 11.6526C12.4435 11.6526 11.5992 12.497 11.5992 13.5352C11.5992 14.5746 12.4435 15.4189 13.4818 15.4189ZM19.6162 14.9981C19.6162 16.3128 20.6854 17.3825 22 17.3825C23.3146 17.3825 24.3838 16.3129 24.3838 14.9981C24.3838 13.6847 23.3146 12.6155 22 12.6155C20.6854 12.6155 19.6162 13.6847 19.6162 14.9981ZM26.8945 19.4235C27.3833 17.856 28.8524 16.7521 30.5181 16.7521C32.6109 16.7521 34.3138 18.4543 34.3138 20.5477V27.1608C34.3138 27.6046 33.9531 27.9664 33.5087 27.9664H28.9013V24.2838C28.9013 22.3894 28.1333 20.6718 26.8945 19.4235ZM30.5182 15.4189C31.5565 15.4189 32.4008 14.5746 32.4008 13.5352C32.4008 12.497 31.5565 11.6526 30.5182 11.6526C29.48 11.6526 28.6345 12.497 28.6345 13.5352C28.6344 14.5746 29.48 15.4189 30.5182 15.4189ZM26.1788 34.025H17.8218C16.3201 34.025 15.0987 32.8025 15.0987 31.3013V29.2996H10.4919C9.31205 29.2996 8.35308 28.3405 8.35308 27.1608V20.5477C8.35308 18.4959 9.56376 16.7235 11.3076 15.9032C10.6677 15.3156 10.266 14.4712 10.266 13.5352C10.266 11.7615 11.7087 10.3193 13.4818 10.3193C15.2554 10.3193 16.6987 11.7615 16.6987 13.5352C16.6987 14.4728 16.2953 15.3183 15.6526 15.9066C16.7779 16.4375 17.6931 17.3673 18.1936 18.5308C18.6256 18.2438 19.0914 18.0045 19.5841 17.8196C18.7886 17.1381 18.283 16.1263 18.283 14.9982C18.283 12.9498 19.9504 11.2819 21.9999 11.2819C24.0499 11.2819 25.7174 12.9498 25.7174 14.9982C25.7174 16.1264 25.2112 17.1382 24.4157 17.8196C24.9084 18.0045 25.3742 18.2438 25.8056 18.5308C26.3067 17.3673 27.222 16.4376 28.3478 15.9066C27.7051 15.3183 27.3011 14.4728 27.3011 13.5352C27.3011 11.7615 28.745 10.3193 30.518 10.3193C32.2917 10.3193 33.7339 11.7615 33.7339 13.5352C33.7339 14.4712 33.3328 15.3156 32.6923 15.9032C34.4361 16.7235 35.6468 18.4959 35.6468 20.5477V27.1608C35.6468 28.3406 34.6879 29.2996 33.5086 29.2996H28.9012V31.3013C28.9013 32.8025 27.6799 34.025 26.1788 34.025ZM22.5084 34.888L24.2394 36.9273C24.4776 37.2082 24.4428 37.6285 24.1619 37.8667C23.8809 38.1055 23.461 38.0715 23.2225 37.7903L22.6668 37.1352V43.3337C22.6668 43.7017 22.3679 44 22 44C17.215 44 12.6649 42.4899 8.84294 39.633C5.1479 36.8711 2.36024 32.9379 0.993843 28.5558C0.884323 28.2047 1.07983 27.8305 1.43202 27.721C1.78315 27.612 2.15735 27.808 2.26686 28.1591C4.90571 36.6234 12.5177 42.3785 21.3337 42.6561V37.1351L20.778 37.7902C20.5393 38.0711 20.1184 38.1049 19.838 37.8666C19.5571 37.6285 19.5228 37.2081 19.7611 36.9272L21.4915 34.8879C21.7887 34.5434 22.302 34.6118 22.5084 34.888ZM21.4916 9.11146L19.7612 7.07209C19.523 6.79118 19.5572 6.37097 19.8381 6.13272C20.1185 5.89341 20.5393 5.92818 20.7781 6.20861L21.3338 6.86419V0.666917C21.3337 0.297817 21.6321 0 22 0C26.785 0 31.335 1.50964 35.1576 4.36638C38.8527 7.12829 41.6403 11.0615 43.0062 15.4436C43.1157 15.7948 42.9191 16.1689 42.568 16.2785C42.2235 16.3852 41.8452 16.1981 41.7337 15.8397C39.0942 7.37605 31.4829 1.62031 22.6668 1.34335V6.86419L23.2225 6.20861C23.4607 5.92886 23.882 5.89456 24.1619 6.13272C24.4428 6.37097 24.4776 6.79118 24.2394 7.07209L22.5084 9.11146L22.273 9.28784C21.9684 9.41619 21.7143 9.33424 21.4916 9.11146ZM2.92485 23.2225C2.45122 23.6249 2.74212 24.3972 3.3563 24.3972C3.50857 24.3972 3.66247 24.345 3.78775 24.2394L5.87381 22.4635C6.15443 22.1631 6.10495 21.7143 5.82664 21.4916L3.78784 19.7601C3.50693 19.523 3.08615 19.5568 2.84847 19.8377C2.60974 20.1186 2.64452 20.5388 2.92485 20.777L3.57995 21.3338H1.34392C1.62147 12.5172 7.37605 4.90581 15.8409 2.26696C16.192 2.15686 16.3887 1.78325 16.2785 1.43154C16.1689 1.0804 15.7959 0.883747 15.4436 0.993939C11.0621 2.36024 7.12819 5.14685 4.36638 8.84304C1.51022 12.665 0 17.2145 0 22C0 22.368 0.298873 22.6669 0.666917 22.6669H3.57995L2.92485 23.2225ZM44 22C44 21.6315 43.7017 21.3337 43.3337 21.3337H40.4206L41.0757 20.7769C41.3555 20.5387 41.3904 20.1185 41.1522 19.8376C40.9139 19.5567 40.4937 19.5219 40.2128 19.76L38.1735 21.4915C37.9039 21.7065 37.8462 22.1326 38.1088 22.4438L40.2127 24.2394C40.338 24.345 40.4914 24.3972 40.6436 24.3972C41.2604 24.3972 41.5472 23.6233 41.0756 23.2225L40.4205 22.6669H42.656C42.3784 31.4829 36.6239 39.0937 28.1589 41.7326C27.8078 41.8427 27.6112 42.2163 27.7219 42.568C27.8337 42.9254 28.2119 43.1152 28.5562 43.0057C32.9377 41.6394 36.8721 38.8528 39.634 35.1566C42.4898 31.3345 44 26.785 44 22Z" fill="#1E81CE"/>
</svg>
